packet|codec_type=audio|stream_index=0|pts=0|pts_time=0.000000|dts=0|dts_time=0.000000|duration=2048|duration_time=0.046440|size=372|pos=56|flags=K__
packet|codec_type=audio|stream_index=0|pts=2048|pts_time=0.046440|dts=2048|dts_time=0.046440|duration=2048|duration_time=0.046440|size=372|pos=428|flags=K__
packet|codec_type=audio|stream_index=0|pts=4096|pts_time=0.092880|dts=4096|dts_time=0.092880|duration=2048|duration_time=0.046440|size=372|pos=800|flags=K__
frame|media_type=audio|stream_index=0|key_frame=1|pts=4096|pts_time=0.092880|pkt_dts=4096|pkt_dts_time=0.092880|best_effort_timestamp=4096|best_effort_timestamp_time=0.092880|duration=2048|duration_time=0.046440|pkt_pos=800|pkt_size=372|sample_fmt=fltp|nb_samples=2048|channels=2|channel_layout=unknown
packet|codec_type=audio|stream_index=0|pts=6144|pts_time=0.139320|dts=6144|dts_time=0.139320|duration=2048|duration_time=0.046440|size=372|pos=1172|flags=K__
frame|media_type=audio|stream_index=0|key_frame=1|pts=6144|pts_time=0.139320|pkt_dts=6144|pkt_dts_time=0.139320|best_effort_timestamp=6144|best_effort_timestamp_time=0.139320|duration=2048|duration_time=0.046440|pkt_pos=1172|pkt_size=372|sample_fmt=fltp|nb_samples=2048|channels=2|channel_layout=unknown
packet|codec_type=audio|stream_index=0|pts=8192|pts_time=0.185760|dts=8192|dts_time=0.185760|duration=2048|duration_time=0.046440|size=372|pos=1544|flags=K__
frame|media_type=audio|stream_index=0|key_frame=1|pts=8192|pts_time=0.185760|pkt_dts=8192|pkt_dts_time=0.185760|best_effort_timestamp=8192|best_effort_timestamp_time=0.185760|duration=2048|duration_time=0.046440|pkt_pos=1544|pkt_size=372|sample_fmt=fltp|nb_samples=2048|channels=2|channel_layout=unknown
packet|codec_type=audio|stream_index=0|pts=10240|pts_time=0.232200|dts=10240|dts_time=0.232200|duration=2048|duration_time=0.046440|size=372|pos=1916|flags=K__
frame|media_type=audio|stream_index=0|key_frame=1|pts=10240|pts_time=0.232200|pkt_dts=10240|pkt_dts_time=0.232200|best_effort_timestamp=10240|best_effort_timestamp_time=0.232200|duration=2048|duration_time=0.046440|pkt_pos=1916|pkt_size=372|sample_fmt=fltp|nb_samples=2048|channels=2|channel_layout=unknown
packet|codec_type=audio|stream_index=0|pts=12288|pts_time=0.278639|dts=12288|dts_time=0.278639|duration=2048|duration_time=0.046440|size=372|pos=2288|flags=K__
frame|media_type=audio|stream_index=0|key_frame=1|pts=12288|pts_time=0.278639|pkt_dts=12288|pkt_dts_time=0.278639|best_effort_timestamp=12288|best_effort_timestamp_time=0.278639|duration=2048|duration_time=0.046440|pkt_pos=2288|pkt_size=372|sample_fmt=fltp|nb_samples=2048|channels=2|channel_layout=unknown
packet|codec_type=audio|stream_index=0|pts=14336|pts_time=0.325079|dts=14336|dts_time=0.325079|duration=2048|duration_time=0.046440|size=372|pos=2660|flags=K__
frame|media_type=audio|stream_index=0|key_frame=1|pts=14336|pts_time=0.325079|pkt_dts=14336|pkt_dts_time=0.325079|best_effort_timestamp=14336|best_effort_timestamp_time=0.325079|duration=2048|duration_time=0.046440|pkt_pos=2660|pkt_size=372|sample_fmt=fltp|nb_samples=2048|channels=2|channel_layout=unknown
packet|codec_type=audio|stream_index=0|pts=16384|pts_time=0.371519|dts=16384|dts_time=0.371519|duration=2048|duration_time=0.046440|size=372|pos=3032|flags=K__
frame|media_type=audio|stream_index=0|key_frame=1|pts=16384|pts_time=0.371519|pkt_dts=16384|pkt_dts_time=0.371519|best_effort_timestamp=16384|best_effort_timestamp_time=0.371519|duration=2048|duration_time=0.046440|pkt_pos=3032|pkt_size=372|sample_fmt=fltp|nb_samples=2048|channels=2|channel_layout=unknown
packet|codec_type=audio|stream_index=0|pts=18432|pts_time=0.417959|dts=18432|dts_time=0.417959|duration=2048|duration_time=0.046440|size=372|pos=3404|flags=K__
frame|media_type=audio|stream_index=0|key_frame=1|pts=18432|pts_time=0.417959|pkt_dts=18432|pkt_dts_time=0.417959|best_effort_timestamp=18432|best_effort_timestamp_time=0.417959|duration=2048|duration_time=0.046440|pkt_pos=3404|pkt_size=372|sample_fmt=fltp|nb_samples=2048|channels=2|channel_layout=unknown
packet|codec_type=audio|stream_index=0|pts=20480|pts_time=0.464399|dts=20480|dts_time=0.464399|duration=2048|duration_time=0.046440|size=372|pos=3776|flags=K__
frame|media_type=audio|stream_index=0|key_frame=1|pts=20480|pts_time=0.464399|pkt_dts=20480|pkt_dts_time=0.464399|best_effort_timestamp=20480|best_effort_timestamp_time=0.464399|duration=2048|duration_time=0.046440|pkt_pos=3776|pkt_size=372|sample_fmt=fltp|nb_samples=2048|channels=2|channel_layout=unknown
packet|codec_type=audio|stream_index=0|pts=22528|pts_time=0.510839|dts=22528|dts_time=0.510839|duration=2048|duration_time=0.046440|size=372|pos=4148|flags=K__
frame|media_type=audio|stream_index=0|key_frame=1|pts=22528|pts_time=0.510839|pkt_dts=22528|pkt_dts_time=0.510839|best_effort_timestamp=22528|best_effort_timestamp_time=0.510839|duration=2048|duration_time=0.046440|pkt_pos=4148|pkt_size=372|sample_fmt=fltp|nb_samples=2048|channels=2|channel_layout=unknown
packet|codec_type=audio|stream_index=0|pts=24576|pts_time=0.557279|dts=24576|dts_time=0.557279|duration=2048|duration_time=0.046440|size=372|pos=4520|flags=K__
frame|media_type=audio|stream_index=0|key_frame=1|pts=24576|pts_time=0.557279|pkt_dts=24576|pkt_dts_time=0.557279|best_effort_timestamp=24576|best_effort_timestamp_time=0.557279|duration=2048|duration_time=0.046440|pkt_pos=4520|pkt_size=372|sample_fmt=fltp|nb_samples=2048|channels=2|channel_layout=unknown
packet|codec_type=audio|stream_index=0|pts=26624|pts_time=0.603719|dts=26624|dts_time=0.603719|duration=2048|duration_time=0.046440|size=372|pos=4892|flags=K__
frame|media_type=audio|stream_index=0|key_frame=1|pts=26624|pts_time=0.603719|pkt_dts=26624|pkt_dts_time=0.603719|best_effort_timestamp=26624|best_effort_timestamp_time=0.603719|duration=2048|duration_time=0.046440|pkt_pos=4892|pkt_size=372|sample_fmt=fltp|nb_samples=2048|channels=2|channel_layout=unknown
packet|codec_type=audio|stream_index=0|pts=28672|pts_time=0.650159|dts=28672|dts_time=0.650159|duration=2048|duration_time=0.046440|size=372|pos=5264|flags=K__
frame|media_type=audio|stream_index=0|key_frame=1|pts=28672|pts_time=0.650159|pkt_dts=28672|pkt_dts_time=0.650159|best_effort_timestamp=28672|best_effort_timestamp_time=0.650159|duration=2048|duration_time=0.046440|pkt_pos=5264|pkt_size=372|sample_fmt=fltp|nb_samples=2048|channels=2|channel_layout=unknown
packet|codec_type=audio|stream_index=0|pts=30720|pts_time=0.696599|dts=30720|dts_time=0.696599|duration=2048|duration_time=0.046440|size=372|pos=5636|flags=K__
frame|media_type=audio|stream_index=0|key_frame=1|pts=30720|pts_time=0.696599|pkt_dts=30720|pkt_dts_time=0.696599|best_effort_timestamp=30720|best_effort_timestamp_time=0.696599|duration=2048|duration_time=0.046440|pkt_pos=5636|pkt_size=372|sample_fmt=fltp|nb_samples=2048|channels=2|channel_layout=unknown
packet|codec_type=audio|stream_index=0|pts=32768|pts_time=0.743039|dts=32768|dts_time=0.743039|duration=2048|duration_time=0.046440|size=372|pos=6008|flags=K__
frame|media_type=audio|stream_index=0|key_frame=1|pts=32768|pts_time=0.743039|pkt_dts=32768|pkt_dts_time=0.743039|best_effort_timestamp=32768|best_effort_timestamp_time=0.743039|duration=2048|duration_time=0.046440|pkt_pos=6008|pkt_size=372|sample_fmt=fltp|nb_samples=2048|channels=2|channel_layout=unknown
packet|codec_type=audio|stream_index=0|pts=34816|pts_time=0.789478|dts=34816|dts_time=0.789478|duration=2048|duration_time=0.046440|size=372|pos=6380|flags=K__
frame|media_type=audio|stream_index=0|key_frame=1|pts=34816|pts_time=0.789478|pkt_dts=34816|pkt_dts_time=0.789478|best_effort_timestamp=34816|best_effort_timestamp_time=0.789478|duration=2048|duration_time=0.046440|pkt_pos=6380|pkt_size=372|sample_fmt=fltp|nb_samples=2048|channels=2|channel_layout=unknown
packet|codec_type=audio|stream_index=0|pts=36864|pts_time=0.835918|dts=36864|dts_time=0.835918|duration=2048|duration_time=0.046440|size=372|pos=6752|flags=K__
frame|media_type=audio|stream_index=0|key_frame=1|pts=36864|pts_time=0.835918|pkt_dts=36864|pkt_dts_time=0.835918|best_effort_timestamp=36864|best_effort_timestamp_time=0.835918|duration=2048|duration_time=0.046440|pkt_pos=6752|pkt_size=372|sample_fmt=fltp|nb_samples=2048|channels=2|channel_layout=unknown
packet|codec_type=audio|stream_index=0|pts=38912|pts_time=0.882358|dts=38912|dts_time=0.882358|duration=2048|duration_time=0.046440|size=372|pos=7124|flags=K__
frame|media_type=audio|stream_index=0|key_frame=1|pts=38912|pts_time=0.882358|pkt_dts=38912|pkt_dts_time=0.882358|best_effort_timestamp=38912|best_effort_timestamp_time=0.882358|duration=2048|duration_time=0.046440|pkt_pos=7124|pkt_size=372|sample_fmt=fltp|nb_samples=2048|channels=2|channel_layout=unknown
packet|codec_type=audio|stream_index=0|pts=40960|pts_time=0.928798|dts=40960|dts_time=0.928798|duration=2048|duration_time=0.046440|size=372|pos=7496|flags=K__
frame|media_type=audio|stream_index=0|key_frame=1|pts=40960|pts_time=0.928798|pkt_dts=40960|pkt_dts_time=0.928798|best_effort_timestamp=40960|best_effort_timestamp_time=0.928798|duration=2048|duration_time=0.046440|pkt_pos=7496|pkt_size=372|sample_fmt=fltp|nb_samples=2048|channels=2|channel_layout=unknown
packet|codec_type=audio|stream_index=0|pts=43008|pts_time=0.975238|dts=43008|dts_time=0.975238|duration=2048|duration_time=0.046440|size=372|pos=7868|flags=K__
frame|media_type=audio|stream_index=0|key_frame=1|pts=43008|pts_time=0.975238|pkt_dts=43008|pkt_dts_time=0.975238|best_effort_timestamp=43008|best_effort_timestamp_time=0.975238|duration=2048|duration_time=0.046440|pkt_pos=7868|pkt_size=372|sample_fmt=fltp|nb_samples=2048|channels=2|channel_layout=unknown
packet|codec_type=audio|stream_index=0|pts=45056|pts_time=1.021678|dts=45056|dts_time=1.021678|duration=2048|duration_time=0.046440|size=372|pos=8240|flags=K__
frame|media_type=audio|stream_index=0|key_frame=1|pts=45056|pts_time=1.021678|pkt_dts=45056|pkt_dts_time=1.021678|best_effort_timestamp=45056|best_effort_timestamp_time=1.021678|duration=2048|duration_time=0.046440|pkt_pos=8240|pkt_size=372|sample_fmt=fltp|nb_samples=2048|channels=2|channel_layout=unknown
packet|codec_type=audio|stream_index=0|pts=47104|pts_time=1.068118|dts=47104|dts_time=1.068118|duration=2048|duration_time=0.046440|size=372|pos=8612|flags=K__
frame|media_type=audio|stream_index=0|key_frame=1|pts=47104|pts_time=1.068118|pkt_dts=47104|pkt_dts_time=1.068118|best_effort_timestamp=47104|best_effort_timestamp_time=1.068118|duration=2048|duration_time=0.046440|pkt_pos=8612|pkt_size=372|sample_fmt=fltp|nb_samples=2048|channels=2|channel_layout=unknown
packet|codec_type=audio|stream_index=0|pts=49152|pts_time=1.114558|dts=49152|dts_time=1.114558|duration=2048|duration_time=0.046440|size=372|pos=8984|flags=K__
frame|media_type=audio|stream_index=0|key_frame=1|pts=49152|pts_time=1.114558|pkt_dts=49152|pkt_dts_time=1.114558|best_effort_timestamp=49152|best_effort_timestamp_time=1.114558|duration=2048|duration_time=0.046440|pkt_pos=8984|pkt_size=372|sample_fmt=fltp|nb_samples=2048|channels=2|channel_layout=unknown
packet|codec_type=audio|stream_index=0|pts=51200|pts_time=1.160998|dts=51200|dts_time=1.160998|duration=2048|duration_time=0.046440|size=372|pos=9356|flags=K__
frame|media_type=audio|stream_index=0|key_frame=1|pts=51200|pts_time=1.160998|pkt_dts=51200|pkt_dts_time=1.160998|best_effort_timestamp=51200|best_effort_timestamp_time=1.160998|duration=2048|duration_time=0.046440|pkt_pos=9356|pkt_size=372|sample_fmt=fltp|nb_samples=2048|channels=2|channel_layout=unknown
packet|codec_type=audio|stream_index=0|pts=53248|pts_time=1.207438|dts=53248|dts_time=1.207438|duration=2048|duration_time=0.046440|size=372|pos=9728|flags=K__
frame|media_type=audio|stream_index=0|key_frame=1|pts=53248|pts_time=1.207438|pkt_dts=53248|pkt_dts_time=1.207438|best_effort_timestamp=53248|best_effort_timestamp_time=1.207438|duration=2048|duration_time=0.046440|pkt_pos=9728|pkt_size=372|sample_fmt=fltp|nb_samples=2048|channels=2|channel_layout=unknown
packet|codec_type=audio|stream_index=0|pts=55296|pts_time=1.253878|dts=55296|dts_time=1.253878|duration=2048|duration_time=0.046440|size=372|pos=10100|flags=K__
frame|media_type=audio|stream_index=0|key_frame=1|pts=55296|pts_time=1.253878|pkt_dts=55296|pkt_dts_time=1.253878|best_effort_timestamp=55296|best_effort_timestamp_time=1.253878|duration=2048|duration_time=0.046440|pkt_pos=10100|pkt_size=372|sample_fmt=fltp|nb_samples=2048|channels=2|channel_layout=unknown
packet|codec_type=audio|stream_index=0|pts=57344|pts_time=1.300317|dts=57344|dts_time=1.300317|duration=2048|duration_time=0.046440|size=372|pos=10472|flags=K__
frame|media_type=audio|stream_index=0|key_frame=1|pts=57344|pts_time=1.300317|pkt_dts=57344|pkt_dts_time=1.300317|best_effort_timestamp=57344|best_effort_timestamp_time=1.300317|duration=2048|duration_time=0.046440|pkt_pos=10472|pkt_size=372|sample_fmt=fltp|nb_samples=2048|channels=2|channel_layout=unknown
packet|codec_type=audio|stream_index=0|pts=59392|pts_time=1.346757|dts=59392|dts_time=1.346757|duration=2048|duration_time=0.046440|size=372|pos=10844|flags=K__
frame|media_type=audio|stream_index=0|key_frame=1|pts=59392|pts_time=1.346757|pkt_dts=59392|pkt_dts_time=1.346757|best_effort_timestamp=59392|best_effort_timestamp_time=1.346757|duration=2048|duration_time=0.046440|pkt_pos=10844|pkt_size=372|sample_fmt=fltp|nb_samples=2048|channels=2|channel_layout=unknown
packet|codec_type=audio|stream_index=0|pts=61440|pts_time=1.393197|dts=61440|dts_time=1.393197|duration=2048|duration_time=0.046440|size=372|pos=11216|flags=K__
frame|media_type=audio|stream_index=0|key_frame=1|pts=61440|pts_time=1.393197|pkt_dts=61440|pkt_dts_time=1.393197|best_effort_timestamp=61440|best_effort_timestamp_time=1.393197|duration=2048|duration_time=0.046440|pkt_pos=11216|pkt_size=372|sample_fmt=fltp|nb_samples=2048|channels=2|channel_layout=unknown
packet|codec_type=audio|stream_index=0|pts=63488|pts_time=1.439637|dts=63488|dts_time=1.439637|duration=2048|duration_time=0.046440|size=372|pos=11588|flags=K__
frame|media_type=audio|stream_index=0|key_frame=1|pts=63488|pts_time=1.439637|pkt_dts=63488|pkt_dts_time=1.439637|best_effort_timestamp=63488|best_effort_timestamp_time=1.439637|duration=2048|duration_time=0.046440|pkt_pos=11588|pkt_size=372|sample_fmt=fltp|nb_samples=2048|channels=2|channel_layout=unknown
packet|codec_type=audio|stream_index=0|pts=65536|pts_time=1.486077|dts=65536|dts_time=1.486077|duration=2048|duration_time=0.046440|size=372|pos=11960|flags=K__
frame|media_type=audio|stream_index=0|key_frame=1|pts=65536|pts_time=1.486077|pkt_dts=65536|pkt_dts_time=1.486077|best_effort_timestamp=65536|best_effort_timestamp_time=1.486077|duration=2048|duration_time=0.046440|pkt_pos=11960|pkt_size=372|sample_fmt=fltp|nb_samples=2048|channels=2|channel_layout=unknown
packet|codec_type=audio|stream_index=0|pts=67584|pts_time=1.532517|dts=67584|dts_time=1.532517|duration=2048|duration_time=0.046440|size=372|pos=12332|flags=K__
frame|media_type=audio|stream_index=0|key_frame=1|pts=67584|pts_time=1.532517|pkt_dts=67584|pkt_dts_time=1.532517|best_effort_timestamp=67584|best_effort_timestamp_time=1.532517|duration=2048|duration_time=0.046440|pkt_pos=12332|pkt_size=372|sample_fmt=fltp|nb_samples=2048|channels=2|channel_layout=unknown
packet|codec_type=audio|stream_index=0|pts=69632|pts_time=1.578957|dts=69632|dts_time=1.578957|duration=2048|duration_time=0.046440|size=372|pos=12704|flags=K__
frame|media_type=audio|stream_index=0|key_frame=1|pts=69632|pts_time=1.578957|pkt_dts=69632|pkt_dts_time=1.578957|best_effort_timestamp=69632|best_effort_timestamp_time=1.578957|duration=2048|duration_time=0.046440|pkt_pos=12704|pkt_size=372|sample_fmt=fltp|nb_samples=2048|channels=2|channel_layout=unknown
packet|codec_type=audio|stream_index=0|pts=71680|pts_time=1.625397|dts=71680|dts_time=1.625397|duration=2048|duration_time=0.046440|size=372|pos=13076|flags=K__
frame|media_type=audio|stream_index=0|key_frame=1|pts=71680|pts_time=1.625397|pkt_dts=71680|pkt_dts_time=1.625397|best_effort_timestamp=71680|best_effort_timestamp_time=1.625397|duration=2048|duration_time=0.046440|pkt_pos=13076|pkt_size=372|sample_fmt=fltp|nb_samples=2048|channels=2|channel_layout=unknown
packet|codec_type=audio|stream_index=0|pts=73728|pts_time=1.671837|dts=73728|dts_time=1.671837|duration=2048|duration_time=0.046440|size=372|pos=13448|flags=K__
frame|media_type=audio|stream_index=0|key_frame=1|pts=73728|pts_time=1.671837|pkt_dts=73728|pkt_dts_time=1.671837|best_effort_timestamp=73728|best_effort_timestamp_time=1.671837|duration=2048|duration_time=0.046440|pkt_pos=13448|pkt_size=372|sample_fmt=fltp|nb_samples=2048|channels=2|channel_layout=unknown
packet|codec_type=audio|stream_index=0|pts=75776|pts_time=1.718277|dts=75776|dts_time=1.718277|duration=2048|duration_time=0.046440|size=372|pos=13820|flags=K__
frame|media_type=audio|stream_index=0|key_frame=1|pts=75776|pts_time=1.718277|pkt_dts=75776|pkt_dts_time=1.718277|best_effort_timestamp=75776|best_effort_timestamp_time=1.718277|duration=2048|duration_time=0.046440|pkt_pos=13820|pkt_size=372|sample_fmt=fltp|nb_samples=2048|channels=2|channel_layout=unknown
packet|codec_type=audio|stream_index=0|pts=77824|pts_time=1.764717|dts=77824|dts_time=1.764717|duration=2048|duration_time=0.046440|size=372|pos=14192|flags=K__
frame|media_type=audio|stream_index=0|key_frame=1|pts=77824|pts_time=1.764717|pkt_dts=77824|pkt_dts_time=1.764717|best_effort_timestamp=77824|best_effort_timestamp_time=1.764717|duration=2048|duration_time=0.046440|pkt_pos=14192|pkt_size=372|sample_fmt=fltp|nb_samples=2048|channels=2|channel_layout=unknown
packet|codec_type=audio|stream_index=0|pts=79872|pts_time=1.811156|dts=79872|dts_time=1.811156|duration=2048|duration_time=0.046440|size=372|pos=14564|flags=K__
frame|media_type=audio|stream_index=0|key_frame=1|pts=79872|pts_time=1.811156|pkt_dts=79872|pkt_dts_time=1.811156|best_effort_timestamp=79872|best_effort_timestamp_time=1.811156|duration=2048|duration_time=0.046440|pkt_pos=14564|pkt_size=372|sample_fmt=fltp|nb_samples=2048|channels=2|channel_layout=unknown
packet|codec_type=audio|stream_index=0|pts=81920|pts_time=1.857596|dts=81920|dts_time=1.857596|duration=2048|duration_time=0.046440|size=372|pos=14936|flags=K__
frame|media_type=audio|stream_index=0|key_frame=1|pts=81920|pts_time=1.857596|pkt_dts=81920|pkt_dts_time=1.857596|best_effort_timestamp=81920|best_effort_timestamp_time=1.857596|duration=2048|duration_time=0.046440|pkt_pos=14936|pkt_size=372|sample_fmt=fltp|nb_samples=2048|channels=2|channel_layout=unknown
packet|codec_type=audio|stream_index=0|pts=83968|pts_time=1.904036|dts=83968|dts_time=1.904036|duration=2048|duration_time=0.046440|size=372|pos=15308|flags=K__
frame|media_type=audio|stream_index=0|key_frame=1|pts=83968|pts_time=1.904036|pkt_dts=83968|pkt_dts_time=1.904036|best_effort_timestamp=83968|best_effort_timestamp_time=1.904036|duration=2048|duration_time=0.046440|pkt_pos=15308|pkt_size=372|sample_fmt=fltp|nb_samples=2048|channels=2|channel_layout=unknown
packet|codec_type=audio|stream_index=0|pts=86016|pts_time=1.950476|dts=86016|dts_time=1.950476|duration=2048|duration_time=0.046440|size=372|pos=15680|flags=K__
frame|media_type=audio|stream_index=0|key_frame=1|pts=86016|pts_time=1.950476|pkt_dts=86016|pkt_dts_time=1.950476|best_effort_timestamp=86016|best_effort_timestamp_time=1.950476|duration=2048|duration_time=0.046440|pkt_pos=15680|pkt_size=372|sample_fmt=fltp|nb_samples=2048|channels=2|channel_layout=unknown
packet|codec_type=audio|stream_index=0|pts=88064|pts_time=1.996916|dts=88064|dts_time=1.996916|duration=2048|duration_time=0.046440|size=372|pos=16052|flags=K__
frame|media_type=audio|stream_index=0|key_frame=1|pts=88064|pts_time=1.996916|pkt_dts=88064|pkt_dts_time=1.996916|best_effort_timestamp=88064|best_effort_timestamp_time=1.996916|duration=2048|duration_time=0.046440|pkt_pos=16052|pkt_size=372|sample_fmt=fltp|nb_samples=2048|channels=2|channel_layout=unknown
packet|codec_type=audio|stream_index=0|pts=90112|pts_time=2.043356|dts=90112|dts_time=2.043356|duration=2048|duration_time=0.046440|size=372|pos=16424|flags=K__
frame|media_type=audio|stream_index=0|key_frame=1|pts=90112|pts_time=2.043356|pkt_dts=90112|pkt_dts_time=2.043356|best_effort_timestamp=90112|best_effort_timestamp_time=2.043356|duration=2048|duration_time=0.046440|pkt_pos=16424|pkt_size=372|sample_fmt=fltp|nb_samples=2048|channels=2|channel_layout=unknown
packet|codec_type=audio|stream_index=0|pts=92160|pts_time=2.089796|dts=92160|dts_time=2.089796|duration=2048|duration_time=0.046440|size=372|pos=16796|flags=K__
frame|media_type=audio|stream_index=0|key_frame=1|pts=92160|pts_time=2.089796|pkt_dts=92160|pkt_dts_time=2.089796|best_effort_timestamp=92160|best_effort_timestamp_time=2.089796|duration=2048|duration_time=0.046440|pkt_pos=16796|pkt_size=372|sample_fmt=fltp|nb_samples=2048|channels=2|channel_layout=unknown
packet|codec_type=audio|stream_index=0|pts=94208|pts_time=2.136236|dts=94208|dts_time=2.136236|duration=2048|duration_time=0.046440|size=372|pos=17168|flags=K__
frame|media_type=audio|stream_index=0|key_frame=1|pts=94208|pts_time=2.136236|pkt_dts=94208|pkt_dts_time=2.136236|best_effort_timestamp=94208|best_effort_timestamp_time=2.136236|duration=2048|duration_time=0.046440|pkt_pos=17168|pkt_size=372|sample_fmt=fltp|nb_samples=2048|channels=2|channel_layout=unknown
packet|codec_type=audio|stream_index=0|pts=96256|pts_time=2.182676|dts=96256|dts_time=2.182676|duration=2048|duration_time=0.046440|size=372|pos=17540|flags=K__
frame|media_type=audio|stream_index=0|key_frame=1|pts=96256|pts_time=2.182676|pkt_dts=96256|pkt_dts_time=2.182676|best_effort_timestamp=96256|best_effort_timestamp_time=2.182676|duration=2048|duration_time=0.046440|pkt_pos=17540|pkt_size=372|sample_fmt=fltp|nb_samples=2048|channels=2|channel_layout=unknown
packet|codec_type=audio|stream_index=0|pts=98304|pts_time=2.229116|dts=98304|dts_time=2.229116|duration=2048|duration_time=0.046440|size=372|pos=17912|flags=K__
frame|media_type=audio|stream_index=0|key_frame=1|pts=98304|pts_time=2.229116|pkt_dts=98304|pkt_dts_time=2.229116|best_effort_timestamp=98304|best_effort_timestamp_time=2.229116|duration=2048|duration_time=0.046440|pkt_pos=17912|pkt_size=372|sample_fmt=fltp|nb_samples=2048|channels=2|channel_layout=unknown
packet|codec_type=audio|stream_index=0|pts=100352|pts_time=2.275556|dts=100352|dts_time=2.275556|duration=2048|duration_time=0.046440|size=372|pos=18284|flags=K__
frame|media_type=audio|stream_index=0|key_frame=1|pts=100352|pts_time=2.275556|pkt_dts=100352|pkt_dts_time=2.275556|best_effort_timestamp=100352|best_effort_timestamp_time=2.275556|duration=2048|duration_time=0.046440|pkt_pos=18284|pkt_size=372|sample_fmt=fltp|nb_samples=2048|channels=2|channel_layout=unknown
packet|codec_type=audio|stream_index=0|pts=102400|pts_time=2.321995|dts=102400|dts_time=2.321995|duration=2048|duration_time=0.046440|size=372|pos=18656|flags=K__
frame|media_type=audio|stream_index=0|key_frame=1|pts=102400|pts_time=2.321995|pkt_dts=102400|pkt_dts_time=2.321995|best_effort_timestamp=102400|best_effort_timestamp_time=2.321995|duration=2048|duration_time=0.046440|pkt_pos=18656|pkt_size=372|sample_fmt=fltp|nb_samples=2048|channels=2|channel_layout=unknown
packet|codec_type=audio|stream_index=0|pts=104448|pts_time=2.368435|dts=104448|dts_time=2.368435|duration=2048|duration_time=0.046440|size=372|pos=19028|flags=K__
frame|media_type=audio|stream_index=0|key_frame=1|pts=104448|pts_time=2.368435|pkt_dts=104448|pkt_dts_time=2.368435|best_effort_timestamp=104448|best_effort_timestamp_time=2.368435|duration=2048|duration_time=0.046440|pkt_pos=19028|pkt_size=372|sample_fmt=fltp|nb_samples=2048|channels=2|channel_layout=unknown
packet|codec_type=audio|stream_index=0|pts=106496|pts_time=2.414875|dts=106496|dts_time=2.414875|duration=2048|duration_time=0.046440|size=372|pos=19400|flags=K__
frame|media_type=audio|stream_index=0|key_frame=1|pts=106496|pts_time=2.414875|pkt_dts=106496|pkt_dts_time=2.414875|best_effort_timestamp=106496|best_effort_timestamp_time=2.414875|duration=2048|duration_time=0.046440|pkt_pos=19400|pkt_size=372|sample_fmt=fltp|nb_samples=2048|channels=2|channel_layout=unknown
packet|codec_type=audio|stream_index=0|pts=108544|pts_time=2.461315|dts=108544|dts_time=2.461315|duration=2048|duration_time=0.046440|size=372|pos=19772|flags=K__
frame|media_type=audio|stream_index=0|key_frame=1|pts=108544|pts_time=2.461315|pkt_dts=108544|pkt_dts_time=2.461315|best_effort_timestamp=108544|best_effort_timestamp_time=2.461315|duration=2048|duration_time=0.046440|pkt_pos=19772|pkt_size=372|sample_fmt=fltp|nb_samples=2048|channels=2|channel_layout=unknown
packet|codec_type=audio|stream_index=0|pts=110592|pts_time=2.507755|dts=110592|dts_time=2.507755|duration=2048|duration_time=0.046440|size=372|pos=20144|flags=K__
frame|media_type=audio|stream_index=0|key_frame=1|pts=110592|pts_time=2.507755|pkt_dts=110592|pkt_dts_time=2.507755|best_effort_timestamp=110592|best_effort_timestamp_time=2.507755|duration=2048|duration_time=0.046440|pkt_pos=20144|pkt_size=372|sample_fmt=fltp|nb_samples=2048|channels=2|channel_layout=unknown
packet|codec_type=audio|stream_index=0|pts=112640|pts_time=2.554195|dts=112640|dts_time=2.554195|duration=2048|duration_time=0.046440|size=372|pos=20516|flags=K__
frame|media_type=audio|stream_index=0|key_frame=1|pts=112640|pts_time=2.554195|pkt_dts=112640|pkt_dts_time=2.554195|best_effort_timestamp=112640|best_effort_timestamp_time=2.554195|duration=2048|duration_time=0.046440|pkt_pos=20516|pkt_size=372|sample_fmt=fltp|nb_samples=2048|channels=2|channel_layout=unknown
packet|codec_type=audio|stream_index=0|pts=114688|pts_time=2.600635|dts=114688|dts_time=2.600635|duration=2048|duration_time=0.046440|size=372|pos=20888|flags=K__
frame|media_type=audio|stream_index=0|key_frame=1|pts=114688|pts_time=2.600635|pkt_dts=114688|pkt_dts_time=2.600635|best_effort_timestamp=114688|best_effort_timestamp_time=2.600635|duration=2048|duration_time=0.046440|pkt_pos=20888|pkt_size=372|sample_fmt=fltp|nb_samples=2048|channels=2|channel_layout=unknown
packet|codec_type=audio|stream_index=0|pts=116736|pts_time=2.647075|dts=116736|dts_time=2.647075|duration=2048|duration_time=0.046440|size=372|pos=21260|flags=K__
frame|media_type=audio|stream_index=0|key_frame=1|pts=116736|pts_time=2.647075|pkt_dts=116736|pkt_dts_time=2.647075|best_effort_timestamp=116736|best_effort_timestamp_time=2.647075|duration=2048|duration_time=0.046440|pkt_pos=21260|pkt_size=372|sample_fmt=fltp|nb_samples=2048|channels=2|channel_layout=unknown
packet|codec_type=audio|stream_index=0|pts=118784|pts_time=2.693515|dts=118784|dts_time=2.693515|duration=2048|duration_time=0.046440|size=372|pos=21632|flags=K__
frame|media_type=audio|stream_index=0|key_frame=1|pts=118784|pts_time=2.693515|pkt_dts=118784|pkt_dts_time=2.693515|best_effort_timestamp=118784|best_effort_timestamp_time=2.693515|duration=2048|duration_time=0.046440|pkt_pos=21632|pkt_size=372|sample_fmt=fltp|nb_samples=2048|channels=2|channel_layout=unknown
packet|codec_type=audio|stream_index=0|pts=120832|pts_time=2.739955|dts=120832|dts_time=2.739955|duration=2048|duration_time=0.046440|size=372|pos=22004|flags=K__
frame|media_type=audio|stream_index=0|key_frame=1|pts=120832|pts_time=2.739955|pkt_dts=120832|pkt_dts_time=2.739955|best_effort_timestamp=120832|best_effort_timestamp_time=2.739955|duration=2048|duration_time=0.046440|pkt_pos=22004|pkt_size=372|sample_fmt=fltp|nb_samples=2048|channels=2|channel_layout=unknown
packet|codec_type=audio|stream_index=0|pts=122880|pts_time=2.786395|dts=122880|dts_time=2.786395|duration=2048|duration_time=0.046440|size=372|pos=22376|flags=K__
frame|media_type=audio|stream_index=0|key_frame=1|pts=122880|pts_time=2.786395|pkt_dts=122880|pkt_dts_time=2.786395|best_effort_timestamp=122880|best_effort_timestamp_time=2.786395|duration=2048|duration_time=0.046440|pkt_pos=22376|pkt_size=372|sample_fmt=fltp|nb_samples=2048|channels=2|channel_layout=unknown
packet|codec_type=audio|stream_index=0|pts=124928|pts_time=2.832834|dts=124928|dts_time=2.832834|duration=2048|duration_time=0.046440|size=372|pos=22748|flags=K__
frame|media_type=audio|stream_index=0|key_frame=1|pts=124928|pts_time=2.832834|pkt_dts=124928|pkt_dts_time=2.832834|best_effort_timestamp=124928|best_effort_timestamp_time=2.832834|duration=2048|duration_time=0.046440|pkt_pos=22748|pkt_size=372|sample_fmt=fltp|nb_samples=2048|channels=2|channel_layout=unknown
packet|codec_type=audio|stream_index=0|pts=126976|pts_time=2.879274|dts=126976|dts_time=2.879274|duration=2048|duration_time=0.046440|size=372|pos=23120|flags=K__
frame|media_type=audio|stream_index=0|key_frame=1|pts=126976|pts_time=2.879274|pkt_dts=126976|pkt_dts_time=2.879274|best_effort_timestamp=126976|best_effort_timestamp_time=2.879274|duration=2048|duration_time=0.046440|pkt_pos=23120|pkt_size=372|sample_fmt=fltp|nb_samples=2048|channels=2|channel_layout=unknown
packet|codec_type=audio|stream_index=0|pts=129024|pts_time=2.925714|dts=129024|dts_time=2.925714|duration=2048|duration_time=0.046440|size=372|pos=23492|flags=K__
frame|media_type=audio|stream_index=0|key_frame=1|pts=129024|pts_time=2.925714|pkt_dts=129024|pkt_dts_time=2.925714|best_effort_timestamp=129024|best_effort_timestamp_time=2.925714|duration=2048|duration_time=0.046440|pkt_pos=23492|pkt_size=372|sample_fmt=fltp|nb_samples=2048|channels=2|channel_layout=unknown
packet|codec_type=audio|stream_index=0|pts=131072|pts_time=2.972154|dts=131072|dts_time=2.972154|duration=2048|duration_time=0.046440|size=372|pos=23864|flags=K__
frame|media_type=audio|stream_index=0|key_frame=1|pts=131072|pts_time=2.972154|pkt_dts=131072|pkt_dts_time=2.972154|best_effort_timestamp=131072|best_effort_timestamp_time=2.972154|duration=2048|duration_time=0.046440|pkt_pos=23864|pkt_size=372|sample_fmt=fltp|nb_samples=2048|channels=2|channel_layout=unknown
packet|codec_type=audio|stream_index=0|pts=133120|pts_time=3.018594|dts=133120|dts_time=3.018594|duration=2048|duration_time=0.046440|size=372|pos=24236|flags=K__
frame|media_type=audio|stream_index=0|key_frame=1|pts=133120|pts_time=3.018594|pkt_dts=133120|pkt_dts_time=3.018594|best_effort_timestamp=133120|best_effort_timestamp_time=3.018594|duration=2048|duration_time=0.046440|pkt_pos=24236|pkt_size=372|sample_fmt=fltp|nb_samples=2048|channels=2|channel_layout=unknown
packet|codec_type=audio|stream_index=0|pts=135168|pts_time=3.065034|dts=135168|dts_time=3.065034|duration=2048|duration_time=0.046440|size=372|pos=24608|flags=K__
frame|media_type=audio|stream_index=0|key_frame=1|pts=135168|pts_time=3.065034|pkt_dts=135168|pkt_dts_time=3.065034|best_effort_timestamp=135168|best_effort_timestamp_time=3.065034|duration=2048|duration_time=0.046440|pkt_pos=24608|pkt_size=372|sample_fmt=fltp|nb_samples=2048|channels=2|channel_layout=unknown
packet|codec_type=audio|stream_index=0|pts=137216|pts_time=3.111474|dts=137216|dts_time=3.111474|duration=2048|duration_time=0.046440|size=372|pos=24980|flags=K__
frame|media_type=audio|stream_index=0|key_frame=1|pts=137216|pts_time=3.111474|pkt_dts=137216|pkt_dts_time=3.111474|best_effort_timestamp=137216|best_effort_timestamp_time=3.111474|duration=2048|duration_time=0.046440|pkt_pos=24980|pkt_size=372|sample_fmt=fltp|nb_samples=2048|channels=2|channel_layout=unknown
packet|codec_type=audio|stream_index=0|pts=139264|pts_time=3.157914|dts=139264|dts_time=3.157914|duration=2048|duration_time=0.046440|size=372|pos=25352|flags=K__
frame|media_type=audio|stream_index=0|key_frame=1|pts=139264|pts_time=3.157914|pkt_dts=139264|pkt_dts_time=3.157914|best_effort_timestamp=139264|best_effort_timestamp_time=3.157914|duration=2048|duration_time=0.046440|pkt_pos=25352|pkt_size=372|sample_fmt=fltp|nb_samples=2048|channels=2|channel_layout=unknown
packet|codec_type=audio|stream_index=0|pts=141312|pts_time=3.204354|dts=141312|dts_time=3.204354|duration=2048|duration_time=0.046440|size=372|pos=25724|flags=K__
frame|media_type=audio|stream_index=0|key_frame=1|pts=141312|pts_time=3.204354|pkt_dts=141312|pkt_dts_time=3.204354|best_effort_timestamp=141312|best_effort_timestamp_time=3.204354|duration=2048|duration_time=0.046440|pkt_pos=25724|pkt_size=372|sample_fmt=fltp|nb_samples=2048|channels=2|channel_layout=unknown
packet|codec_type=audio|stream_index=0|pts=143360|pts_time=3.250794|dts=143360|dts_time=3.250794|duration=2048|duration_time=0.046440|size=372|pos=26096|flags=K__
frame|media_type=audio|stream_index=0|key_frame=1|pts=143360|pts_time=3.250794|pkt_dts=143360|pkt_dts_time=3.250794|best_effort_timestamp=143360|best_effort_timestamp_time=3.250794|duration=2048|duration_time=0.046440|pkt_pos=26096|pkt_size=372|sample_fmt=fltp|nb_samples=2048|channels=2|channel_layout=unknown
packet|codec_type=audio|stream_index=0|pts=145408|pts_time=3.297234|dts=145408|dts_time=3.297234|duration=2048|duration_time=0.046440|size=372|pos=26468|flags=K__
frame|media_type=audio|stream_index=0|key_frame=1|pts=145408|pts_time=3.297234|pkt_dts=145408|pkt_dts_time=3.297234|best_effort_timestamp=145408|best_effort_timestamp_time=3.297234|duration=2048|duration_time=0.046440|pkt_pos=26468|pkt_size=372|sample_fmt=fltp|nb_samples=2048|channels=2|channel_layout=unknown
packet|codec_type=audio|stream_index=0|pts=147456|pts_time=3.343673|dts=147456|dts_time=3.343673|duration=2048|duration_time=0.046440|size=372|pos=26840|flags=K__
frame|media_type=audio|stream_index=0|key_frame=1|pts=147456|pts_time=3.343673|pkt_dts=147456|pkt_dts_time=3.343673|best_effort_timestamp=147456|best_effort_timestamp_time=3.343673|duration=2048|duration_time=0.046440|pkt_pos=26840|pkt_size=372|sample_fmt=fltp|nb_samples=2048|channels=2|channel_layout=unknown
packet|codec_type=audio|stream_index=0|pts=149504|pts_time=3.390113|dts=149504|dts_time=3.390113|duration=2048|duration_time=0.046440|size=372|pos=27212|flags=K__
frame|media_type=audio|stream_index=0|key_frame=1|pts=149504|pts_time=3.390113|pkt_dts=149504|pkt_dts_time=3.390113|best_effort_timestamp=149504|best_effort_timestamp_time=3.390113|duration=2048|duration_time=0.046440|pkt_pos=27212|pkt_size=372|sample_fmt=fltp|nb_samples=2048|channels=2|channel_layout=unknown
packet|codec_type=audio|stream_index=0|pts=151552|pts_time=3.436553|dts=151552|dts_time=3.436553|duration=2048|duration_time=0.046440|size=372|pos=27584|flags=K__
frame|media_type=audio|stream_index=0|key_frame=1|pts=151552|pts_time=3.436553|pkt_dts=151552|pkt_dts_time=3.436553|best_effort_timestamp=151552|best_effort_timestamp_time=3.436553|duration=2048|duration_time=0.046440|pkt_pos=27584|pkt_size=372|sample_fmt=fltp|nb_samples=2048|channels=2|channel_layout=unknown
packet|codec_type=audio|stream_index=0|pts=153600|pts_time=3.482993|dts=153600|dts_time=3.482993|duration=2048|duration_time=0.046440|size=372|pos=27956|flags=K__
frame|media_type=audio|stream_index=0|key_frame=1|pts=153600|pts_time=3.482993|pkt_dts=153600|pkt_dts_time=3.482993|best_effort_timestamp=153600|best_effort_timestamp_time=3.482993|duration=2048|duration_time=0.046440|pkt_pos=27956|pkt_size=372|sample_fmt=fltp|nb_samples=2048|channels=2|channel_layout=unknown
packet|codec_type=audio|stream_index=0|pts=155648|pts_time=3.529433|dts=155648|dts_time=3.529433|duration=2048|duration_time=0.046440|size=372|pos=28328|flags=K__
frame|media_type=audio|stream_index=0|key_frame=1|pts=155648|pts_time=3.529433|pkt_dts=155648|pkt_dts_time=3.529433|best_effort_timestamp=155648|best_effort_timestamp_time=3.529433|duration=2048|duration_time=0.046440|pkt_pos=28328|pkt_size=372|sample_fmt=fltp|nb_samples=2048|channels=2|channel_layout=unknown
packet|codec_type=audio|stream_index=0|pts=157696|pts_time=3.575873|dts=157696|dts_time=3.575873|duration=2048|duration_time=0.046440|size=372|pos=28700|flags=K__
frame|media_type=audio|stream_index=0|key_frame=1|pts=157696|pts_time=3.575873|pkt_dts=157696|pkt_dts_time=3.575873|best_effort_timestamp=157696|best_effort_timestamp_time=3.575873|duration=2048|duration_time=0.046440|pkt_pos=28700|pkt_size=372|sample_fmt=fltp|nb_samples=2048|channels=2|channel_layout=unknown
packet|codec_type=audio|stream_index=0|pts=159744|pts_time=3.622313|dts=159744|dts_time=3.622313|duration=2048|duration_time=0.046440|size=372|pos=29072|flags=K__
frame|media_type=audio|stream_index=0|key_frame=1|pts=159744|pts_time=3.622313|pkt_dts=159744|pkt_dts_time=3.622313|best_effort_timestamp=159744|best_effort_timestamp_time=3.622313|duration=2048|duration_time=0.046440|pkt_pos=29072|pkt_size=372|sample_fmt=fltp|nb_samples=2048|channels=2|channel_layout=unknown
packet|codec_type=audio|stream_index=0|pts=161792|pts_time=3.668753|dts=161792|dts_time=3.668753|duration=2048|duration_time=0.046440|size=372|pos=29444|flags=K__
frame|media_type=audio|stream_index=0|key_frame=1|pts=161792|pts_time=3.668753|pkt_dts=161792|pkt_dts_time=3.668753|best_effort_timestamp=161792|best_effort_timestamp_time=3.668753|duration=2048|duration_time=0.046440|pkt_pos=29444|pkt_size=372|sample_fmt=fltp|nb_samples=2048|channels=2|channel_layout=unknown
packet|codec_type=audio|stream_index=0|pts=163840|pts_time=3.715193|dts=163840|dts_time=3.715193|duration=2048|duration_time=0.046440|size=372|pos=29816|flags=K__
frame|media_type=audio|stream_index=0|key_frame=1|pts=163840|pts_time=3.715193|pkt_dts=163840|pkt_dts_time=3.715193|best_effort_timestamp=163840|best_effort_timestamp_time=3.715193|duration=2048|duration_time=0.046440|pkt_pos=29816|pkt_size=372|sample_fmt=fltp|nb_samples=2048|channels=2|channel_layout=unknown
packet|codec_type=audio|stream_index=0|pts=165888|pts_time=3.761633|dts=165888|dts_time=3.761633|duration=2048|duration_time=0.046440|size=372|pos=30188|flags=K__
frame|media_type=audio|stream_index=0|key_frame=1|pts=165888|pts_time=3.761633|pkt_dts=165888|pkt_dts_time=3.761633|best_effort_timestamp=165888|best_effort_timestamp_time=3.761633|duration=2048|duration_time=0.046440|pkt_pos=30188|pkt_size=372|sample_fmt=fltp|nb_samples=2048|channels=2|channel_layout=unknown
packet|codec_type=audio|stream_index=0|pts=167936|pts_time=3.808073|dts=167936|dts_time=3.808073|duration=2048|duration_time=0.046440|size=372|pos=30560|flags=K__
frame|media_type=audio|stream_index=0|key_frame=1|pts=167936|pts_time=3.808073|pkt_dts=167936|pkt_dts_time=3.808073|best_effort_timestamp=167936|best_effort_timestamp_time=3.808073|duration=2048|duration_time=0.046440|pkt_pos=30560|pkt_size=372|sample_fmt=fltp|nb_samples=2048|channels=2|channel_layout=unknown
packet|codec_type=audio|stream_index=0|pts=169984|pts_time=3.854512|dts=169984|dts_time=3.854512|duration=2048|duration_time=0.046440|size=372|pos=30932|flags=K__
frame|media_type=audio|stream_index=0|key_frame=1|pts=169984|pts_time=3.854512|pkt_dts=169984|pkt_dts_time=3.854512|best_effort_timestamp=169984|best_effort_timestamp_time=3.854512|duration=2048|duration_time=0.046440|pkt_pos=30932|pkt_size=372|sample_fmt=fltp|nb_samples=2048|channels=2|channel_layout=unknown
packet|codec_type=audio|stream_index=0|pts=172032|pts_time=3.900952|dts=172032|dts_time=3.900952|duration=2048|duration_time=0.046440|size=372|pos=31304|flags=K__
frame|media_type=audio|stream_index=0|key_frame=1|pts=172032|pts_time=3.900952|pkt_dts=172032|pkt_dts_time=3.900952|best_effort_timestamp=172032|best_effort_timestamp_time=3.900952|duration=2048|duration_time=0.046440|pkt_pos=31304|pkt_size=372|sample_fmt=fltp|nb_samples=2048|channels=2|channel_layout=unknown
packet|codec_type=audio|stream_index=0|pts=174080|pts_time=3.947392|dts=174080|dts_time=3.947392|duration=2048|duration_time=0.046440|size=372|pos=31676|flags=K__
frame|media_type=audio|stream_index=0|key_frame=1|pts=174080|pts_time=3.947392|pkt_dts=174080|pkt_dts_time=3.947392|best_effort_timestamp=174080|best_effort_timestamp_time=3.947392|duration=2048|duration_time=0.046440|pkt_pos=31676|pkt_size=372|sample_fmt=fltp|nb_samples=2048|channels=2|channel_layout=unknown
packet|codec_type=audio|stream_index=0|pts=176128|pts_time=3.993832|dts=176128|dts_time=3.993832|duration=2048|duration_time=0.046440|size=372|pos=32048|flags=K__
frame|media_type=audio|stream_index=0|key_frame=1|pts=176128|pts_time=3.993832|pkt_dts=176128|pkt_dts_time=3.993832|best_effort_timestamp=176128|best_effort_timestamp_time=3.993832|duration=2048|duration_time=0.046440|pkt_pos=32048|pkt_size=372|sample_fmt=fltp|nb_samples=2048|channels=2|channel_layout=unknown
packet|codec_type=audio|stream_index=0|pts=178176|pts_time=4.040272|dts=178176|dts_time=4.040272|duration=2048|duration_time=0.046440|size=372|pos=32420|flags=K__
frame|media_type=audio|stream_index=0|key_frame=1|pts=178176|pts_time=4.040272|pkt_dts=178176|pkt_dts_time=4.040272|best_effort_timestamp=178176|best_effort_timestamp_time=4.040272|duration=2048|duration_time=0.046440|pkt_pos=32420|pkt_size=372|sample_fmt=fltp|nb_samples=2048|channels=2|channel_layout=unknown
packet|codec_type=audio|stream_index=0|pts=180224|pts_time=4.086712|dts=180224|dts_time=4.086712|duration=2048|duration_time=0.046440|size=372|pos=32792|flags=K__
frame|media_type=audio|stream_index=0|key_frame=1|pts=180224|pts_time=4.086712|pkt_dts=180224|pkt_dts_time=4.086712|best_effort_timestamp=180224|best_effort_timestamp_time=4.086712|duration=2048|duration_time=0.046440|pkt_pos=32792|pkt_size=372|sample_fmt=fltp|nb_samples=2048|channels=2|channel_layout=unknown
packet|codec_type=audio|stream_index=0|pts=182272|pts_time=4.133152|dts=182272|dts_time=4.133152|duration=2048|duration_time=0.046440|size=372|pos=33164|flags=K__
frame|media_type=audio|stream_index=0|key_frame=1|pts=182272|pts_time=4.133152|pkt_dts=182272|pkt_dts_time=4.133152|best_effort_timestamp=182272|best_effort_timestamp_time=4.133152|duration=2048|duration_time=0.046440|pkt_pos=33164|pkt_size=372|sample_fmt=fltp|nb_samples=2048|channels=2|channel_layout=unknown
packet|codec_type=audio|stream_index=0|pts=184320|pts_time=4.179592|dts=184320|dts_time=4.179592|duration=2048|duration_time=0.046440|size=372|pos=33536|flags=K__
frame|media_type=audio|stream_index=0|key_frame=1|pts=184320|pts_time=4.179592|pkt_dts=184320|pkt_dts_time=4.179592|best_effort_timestamp=184320|best_effort_timestamp_time=4.179592|duration=2048|duration_time=0.046440|pkt_pos=33536|pkt_size=372|sample_fmt=fltp|nb_samples=2048|channels=2|channel_layout=unknown
packet|codec_type=audio|stream_index=0|pts=186368|pts_time=4.226032|dts=186368|dts_time=4.226032|duration=2048|duration_time=0.046440|size=372|pos=33908|flags=K__
frame|media_type=audio|stream_index=0|key_frame=1|pts=186368|pts_time=4.226032|pkt_dts=186368|pkt_dts_time=4.226032|best_effort_timestamp=186368|best_effort_timestamp_time=4.226032|duration=2048|duration_time=0.046440|pkt_pos=33908|pkt_size=372|sample_fmt=fltp|nb_samples=2048|channels=2|channel_layout=unknown
packet|codec_type=audio|stream_index=0|pts=188416|pts_time=4.272472|dts=188416|dts_time=4.272472|duration=2048|duration_time=0.046440|size=372|pos=34280|flags=K__
frame|media_type=audio|stream_index=0|key_frame=1|pts=188416|pts_time=4.272472|pkt_dts=188416|pkt_dts_time=4.272472|best_effort_timestamp=188416|best_effort_timestamp_time=4.272472|duration=2048|duration_time=0.046440|pkt_pos=34280|pkt_size=372|sample_fmt=fltp|nb_samples=2048|channels=2|channel_layout=unknown
packet|codec_type=audio|stream_index=0|pts=190464|pts_time=4.318912|dts=190464|dts_time=4.318912|duration=2048|duration_time=0.046440|size=372|pos=34652|flags=K__
frame|media_type=audio|stream_index=0|key_frame=1|pts=190464|pts_time=4.318912|pkt_dts=190464|pkt_dts_time=4.318912|best_effort_timestamp=190464|best_effort_timestamp_time=4.318912|duration=2048|duration_time=0.046440|pkt_pos=34652|pkt_size=372|sample_fmt=fltp|nb_samples=2048|channels=2|channel_layout=unknown
packet|codec_type=audio|stream_index=0|pts=192512|pts_time=4.365351|dts=192512|dts_time=4.365351|duration=2048|duration_time=0.046440|size=372|pos=35024|flags=K__
frame|media_type=audio|stream_index=0|key_frame=1|pts=192512|pts_time=4.365351|pkt_dts=192512|pkt_dts_time=4.365351|best_effort_timestamp=192512|best_effort_timestamp_time=4.365351|duration=2048|duration_time=0.046440|pkt_pos=35024|pkt_size=372|sample_fmt=fltp|nb_samples=2048|channels=2|channel_layout=unknown
packet|codec_type=audio|stream_index=0|pts=194560|pts_time=4.411791|dts=194560|dts_time=4.411791|duration=2048|duration_time=0.046440|size=372|pos=35396|flags=K__
frame|media_type=audio|stream_index=0|key_frame=1|pts=194560|pts_time=4.411791|pkt_dts=194560|pkt_dts_time=4.411791|best_effort_timestamp=194560|best_effort_timestamp_time=4.411791|duration=2048|duration_time=0.046440|pkt_pos=35396|pkt_size=372|sample_fmt=fltp|nb_samples=2048|channels=2|channel_layout=unknown
packet|codec_type=audio|stream_index=0|pts=196608|pts_time=4.458231|dts=196608|dts_time=4.458231|duration=2048|duration_time=0.046440|size=372|pos=35768|flags=K__
frame|media_type=audio|stream_index=0|key_frame=1|pts=196608|pts_time=4.458231|pkt_dts=196608|pkt_dts_time=4.458231|best_effort_timestamp=196608|best_effort_timestamp_time=4.458231|duration=2048|duration_time=0.046440|pkt_pos=35768|pkt_size=372|sample_fmt=fltp|nb_samples=2048|channels=2|channel_layout=unknown
packet|codec_type=audio|stream_index=0|pts=198656|pts_time=4.504671|dts=198656|dts_time=4.504671|duration=2048|duration_time=0.046440|size=372|pos=36140|flags=K__
frame|media_type=audio|stream_index=0|key_frame=1|pts=198656|pts_time=4.504671|pkt_dts=198656|pkt_dts_time=4.504671|best_effort_timestamp=198656|best_effort_timestamp_time=4.504671|duration=2048|duration_time=0.046440|pkt_pos=36140|pkt_size=372|sample_fmt=fltp|nb_samples=2048|channels=2|channel_layout=unknown
packet|codec_type=audio|stream_index=0|pts=200704|pts_time=4.551111|dts=200704|dts_time=4.551111|duration=2048|duration_time=0.046440|size=372|pos=36512|flags=K__
frame|media_type=audio|stream_index=0|key_frame=1|pts=200704|pts_time=4.551111|pkt_dts=200704|pkt_dts_time=4.551111|best_effort_timestamp=200704|best_effort_timestamp_time=4.551111|duration=2048|duration_time=0.046440|pkt_pos=36512|pkt_size=372|sample_fmt=fltp|nb_samples=2048|channels=2|channel_layout=unknown
packet|codec_type=audio|stream_index=0|pts=202752|pts_time=4.597551|dts=202752|dts_time=4.597551|duration=2048|duration_time=0.046440|size=372|pos=36884|flags=K__
frame|media_type=audio|stream_index=0|key_frame=1|pts=202752|pts_time=4.597551|pkt_dts=202752|pkt_dts_time=4.597551|best_effort_timestamp=202752|best_effort_timestamp_time=4.597551|duration=2048|duration_time=0.046440|pkt_pos=36884|pkt_size=372|sample_fmt=fltp|nb_samples=2048|channels=2|channel_layout=unknown
packet|codec_type=audio|stream_index=0|pts=204800|pts_time=4.643991|dts=204800|dts_time=4.643991|duration=2048|duration_time=0.046440|size=372|pos=37256|flags=K__
frame|media_type=audio|stream_index=0|key_frame=1|pts=204800|pts_time=4.643991|pkt_dts=204800|pkt_dts_time=4.643991|best_effort_timestamp=204800|best_effort_timestamp_time=4.643991|duration=2048|duration_time=0.046440|pkt_pos=37256|pkt_size=372|sample_fmt=fltp|nb_samples=2048|channels=2|channel_layout=unknown
packet|codec_type=audio|stream_index=0|pts=206848|pts_time=4.690431|dts=206848|dts_time=4.690431|duration=2048|duration_time=0.046440|size=372|pos=37628|flags=K__
frame|media_type=audio|stream_index=0|key_frame=1|pts=206848|pts_time=4.690431|pkt_dts=206848|pkt_dts_time=4.690431|best_effort_timestamp=206848|best_effort_timestamp_time=4.690431|duration=2048|duration_time=0.046440|pkt_pos=37628|pkt_size=372|sample_fmt=fltp|nb_samples=2048|channels=2|channel_layout=unknown
packet|codec_type=audio|stream_index=0|pts=208896|pts_time=4.736871|dts=208896|dts_time=4.736871|duration=2048|duration_time=0.046440|size=372|pos=38000|flags=K__
frame|media_type=audio|stream_index=0|key_frame=1|pts=208896|pts_time=4.736871|pkt_dts=208896|pkt_dts_time=4.736871|best_effort_timestamp=208896|best_effort_timestamp_time=4.736871|duration=2048|duration_time=0.046440|pkt_pos=38000|pkt_size=372|sample_fmt=fltp|nb_samples=2048|channels=2|channel_layout=unknown
packet|codec_type=audio|stream_index=0|pts=210944|pts_time=4.783311|dts=210944|dts_time=4.783311|duration=2048|duration_time=0.046440|size=372|pos=38372|flags=K__
frame|media_type=audio|stream_index=0|key_frame=1|pts=210944|pts_time=4.783311|pkt_dts=210944|pkt_dts_time=4.783311|best_effort_timestamp=210944|best_effort_timestamp_time=4.783311|duration=2048|duration_time=0.046440|pkt_pos=38372|pkt_size=372|sample_fmt=fltp|nb_samples=2048|channels=2|channel_layout=unknown
packet|codec_type=audio|stream_index=0|pts=212992|pts_time=4.829751|dts=212992|dts_time=4.829751|duration=2048|duration_time=0.046440|size=372|pos=38744|flags=K__
frame|media_type=audio|stream_index=0|key_frame=1|pts=212992|pts_time=4.829751|pkt_dts=212992|pkt_dts_time=4.829751|best_effort_timestamp=212992|best_effort_timestamp_time=4.829751|duration=2048|duration_time=0.046440|pkt_pos=38744|pkt_size=372|sample_fmt=fltp|nb_samples=2048|channels=2|channel_layout=unknown
packet|codec_type=audio|stream_index=0|pts=215040|pts_time=4.876190|dts=215040|dts_time=4.876190|duration=2048|duration_time=0.046440|size=372|pos=39116|flags=K__
frame|media_type=audio|stream_index=0|key_frame=1|pts=215040|pts_time=4.876190|pkt_dts=215040|pkt_dts_time=4.876190|best_effort_timestamp=215040|best_effort_timestamp_time=4.876190|duration=2048|duration_time=0.046440|pkt_pos=39116|pkt_size=372|sample_fmt=fltp|nb_samples=2048|channels=2|channel_layout=unknown
packet|codec_type=audio|stream_index=0|pts=217088|pts_time=4.922630|dts=217088|dts_time=4.922630|duration=2048|duration_time=0.046440|size=372|pos=39488|flags=K__
frame|media_type=audio|stream_index=0|key_frame=1|pts=217088|pts_time=4.922630|pkt_dts=217088|pkt_dts_time=4.922630|best_effort_timestamp=217088|best_effort_timestamp_time=4.922630|duration=2048|duration_time=0.046440|pkt_pos=39488|pkt_size=372|sample_fmt=fltp|nb_samples=2048|channels=2|channel_layout=unknown
packet|codec_type=audio|stream_index=0|pts=219136|pts_time=4.969070|dts=219136|dts_time=4.969070|duration=2048|duration_time=0.046440|size=372|pos=39860|flags=K__
frame|media_type=audio|stream_index=0|key_frame=1|pts=219136|pts_time=4.969070|pkt_dts=219136|pkt_dts_time=4.969070|best_effort_timestamp=219136|best_effort_timestamp_time=4.969070|duration=2048|duration_time=0.046440|pkt_pos=39860|pkt_size=372|sample_fmt=fltp|nb_samples=2048|channels=2|channel_layout=unknown
packet|codec_type=audio|stream_index=0|pts=221184|pts_time=5.015510|dts=221184|dts_time=5.015510|duration=2048|duration_time=0.046440|size=372|pos=40232|flags=K__
frame|media_type=audio|stream_index=0|key_frame=1|pts=221184|pts_time=5.015510|pkt_dts=221184|pkt_dts_time=5.015510|best_effort_timestamp=221184|best_effort_timestamp_time=5.015510|duration=2048|duration_time=0.046440|pkt_pos=40232|pkt_size=372|sample_fmt=fltp|nb_samples=2048|channels=2|channel_layout=unknown
packet|codec_type=audio|stream_index=0|pts=223232|pts_time=5.061950|dts=223232|dts_time=5.061950|duration=2048|duration_time=0.046440|size=372|pos=40604|flags=K__
frame|media_type=audio|stream_index=0|key_frame=1|pts=223232|pts_time=5.061950|pkt_dts=223232|pkt_dts_time=5.061950|best_effort_timestamp=223232|best_effort_timestamp_time=5.061950|duration=2048|duration_time=0.046440|pkt_pos=40604|pkt_size=372|sample_fmt=fltp|nb_samples=2048|channels=2|channel_layout=unknown
packet|codec_type=audio|stream_index=0|pts=225280|pts_time=5.108390|dts=225280|dts_time=5.108390|duration=2048|duration_time=0.046440|size=372|pos=40976|flags=K__
frame|media_type=audio|stream_index=0|key_frame=1|pts=225280|pts_time=5.108390|pkt_dts=225280|pkt_dts_time=5.108390|best_effort_timestamp=225280|best_effort_timestamp_time=5.108390|duration=2048|duration_time=0.046440|pkt_pos=40976|pkt_size=372|sample_fmt=fltp|nb_samples=2048|channels=2|channel_layout=unknown
packet|codec_type=audio|stream_index=0|pts=227328|pts_time=5.154830|dts=227328|dts_time=5.154830|duration=2048|duration_time=0.046440|size=372|pos=41348|flags=K__
frame|media_type=audio|stream_index=0|key_frame=1|pts=227328|pts_time=5.154830|pkt_dts=227328|pkt_dts_time=5.154830|best_effort_timestamp=227328|best_effort_timestamp_time=5.154830|duration=2048|duration_time=0.046440|pkt_pos=41348|pkt_size=372|sample_fmt=fltp|nb_samples=2048|channels=2|channel_layout=unknown
packet|codec_type=audio|stream_index=0|pts=229376|pts_time=5.201270|dts=229376|dts_time=5.201270|duration=2048|duration_time=0.046440|size=372|pos=41720|flags=K__
frame|media_type=audio|stream_index=0|key_frame=1|pts=229376|pts_time=5.201270|pkt_dts=229376|pkt_dts_time=5.201270|best_effort_timestamp=229376|best_effort_timestamp_time=5.201270|duration=2048|duration_time=0.046440|pkt_pos=41720|pkt_size=372|sample_fmt=fltp|nb_samples=2048|channels=2|channel_layout=unknown
packet|codec_type=audio|stream_index=0|pts=231424|pts_time=5.247710|dts=231424|dts_time=5.247710|duration=2048|duration_time=0.046440|size=372|pos=42092|flags=K__
frame|media_type=audio|stream_index=0|key_frame=1|pts=231424|pts_time=5.247710|pkt_dts=231424|pkt_dts_time=5.247710|best_effort_timestamp=231424|best_effort_timestamp_time=5.247710|duration=2048|duration_time=0.046440|pkt_pos=42092|pkt_size=372|sample_fmt=fltp|nb_samples=2048|channels=2|channel_layout=unknown
packet|codec_type=audio|stream_index=0|pts=233472|pts_time=5.294150|dts=233472|dts_time=5.294150|duration=2048|duration_time=0.046440|size=372|pos=42464|flags=K__
frame|media_type=audio|stream_index=0|key_frame=1|pts=233472|pts_time=5.294150|pkt_dts=233472|pkt_dts_time=5.294150|best_effort_timestamp=233472|best_effort_timestamp_time=5.294150|duration=2048|duration_time=0.046440|pkt_pos=42464|pkt_size=372|sample_fmt=fltp|nb_samples=2048|channels=2|channel_layout=unknown
packet|codec_type=audio|stream_index=0|pts=235520|pts_time=5.340590|dts=235520|dts_time=5.340590|duration=2048|duration_time=0.046440|size=372|pos=42836|flags=K__
frame|media_type=audio|stream_index=0|key_frame=1|pts=235520|pts_time=5.340590|pkt_dts=235520|pkt_dts_time=5.340590|best_effort_timestamp=235520|best_effort_timestamp_time=5.340590|duration=2048|duration_time=0.046440|pkt_pos=42836|pkt_size=372|sample_fmt=fltp|nb_samples=2048|channels=2|channel_layout=unknown
packet|codec_type=audio|stream_index=0|pts=237568|pts_time=5.387029|dts=237568|dts_time=5.387029|duration=2048|duration_time=0.046440|size=372|pos=43208|flags=K__
frame|media_type=audio|stream_index=0|key_frame=1|pts=237568|pts_time=5.387029|pkt_dts=237568|pkt_dts_time=5.387029|best_effort_timestamp=237568|best_effort_timestamp_time=5.387029|duration=2048|duration_time=0.046440|pkt_pos=43208|pkt_size=372|sample_fmt=fltp|nb_samples=2048|channels=2|channel_layout=unknown
packet|codec_type=audio|stream_index=0|pts=239616|pts_time=5.433469|dts=239616|dts_time=5.433469|duration=2048|duration_time=0.046440|size=372|pos=43580|flags=K__
frame|media_type=audio|stream_index=0|key_frame=1|pts=239616|pts_time=5.433469|pkt_dts=239616|pkt_dts_time=5.433469|best_effort_timestamp=239616|best_effort_timestamp_time=5.433469|duration=2048|duration_time=0.046440|pkt_pos=43580|pkt_size=372|sample_fmt=fltp|nb_samples=2048|channels=2|channel_layout=unknown
packet|codec_type=audio|stream_index=0|pts=241664|pts_time=5.479909|dts=241664|dts_time=5.479909|duration=2048|duration_time=0.046440|size=372|pos=43952|flags=K__
frame|media_type=audio|stream_index=0|key_frame=1|pts=241664|pts_time=5.479909|pkt_dts=241664|pkt_dts_time=5.479909|best_effort_timestamp=241664|best_effort_timestamp_time=5.479909|duration=2048|duration_time=0.046440|pkt_pos=43952|pkt_size=372|sample_fmt=fltp|nb_samples=2048|channels=2|channel_layout=unknown
packet|codec_type=audio|stream_index=0|pts=243712|pts_time=5.526349|dts=243712|dts_time=5.526349|duration=2048|duration_time=0.046440|size=372|pos=44324|flags=K__
frame|media_type=audio|stream_index=0|key_frame=1|pts=243712|pts_time=5.526349|pkt_dts=243712|pkt_dts_time=5.526349|best_effort_timestamp=243712|best_effort_timestamp_time=5.526349|duration=2048|duration_time=0.046440|pkt_pos=44324|pkt_size=372|sample_fmt=fltp|nb_samples=2048|channels=2|channel_layout=unknown
packet|codec_type=audio|stream_index=0|pts=245760|pts_time=5.572789|dts=245760|dts_time=5.572789|duration=2048|duration_time=0.046440|size=372|pos=44696|flags=K__
frame|media_type=audio|stream_index=0|key_frame=1|pts=245760|pts_time=5.572789|pkt_dts=245760|pkt_dts_time=5.572789|best_effort_timestamp=245760|best_effort_timestamp_time=5.572789|duration=2048|duration_time=0.046440|pkt_pos=44696|pkt_size=372|sample_fmt=fltp|nb_samples=2048|channels=2|channel_layout=unknown
packet|codec_type=audio|stream_index=0|pts=247808|pts_time=5.619229|dts=247808|dts_time=5.619229|duration=2048|duration_time=0.046440|size=372|pos=45068|flags=K__
frame|media_type=audio|stream_index=0|key_frame=1|pts=247808|pts_time=5.619229|pkt_dts=247808|pkt_dts_time=5.619229|best_effort_timestamp=247808|best_effort_timestamp_time=5.619229|duration=2048|duration_time=0.046440|pkt_pos=45068|pkt_size=372|sample_fmt=fltp|nb_samples=2048|channels=2|channel_layout=unknown
packet|codec_type=audio|stream_index=0|pts=249856|pts_time=5.665669|dts=249856|dts_time=5.665669|duration=2048|duration_time=0.046440|size=372|pos=45440|flags=K__
frame|media_type=audio|stream_index=0|key_frame=1|pts=249856|pts_time=5.665669|pkt_dts=249856|pkt_dts_time=5.665669|best_effort_timestamp=249856|best_effort_timestamp_time=5.665669|duration=2048|duration_time=0.046440|pkt_pos=45440|pkt_size=372|sample_fmt=fltp|nb_samples=2048|channels=2|channel_layout=unknown
packet|codec_type=audio|stream_index=0|pts=251904|pts_time=5.712109|dts=251904|dts_time=5.712109|duration=2048|duration_time=0.046440|size=372|pos=45812|flags=K__
frame|media_type=audio|stream_index=0|key_frame=1|pts=251904|pts_time=5.712109|pkt_dts=251904|pkt_dts_time=5.712109|best_effort_timestamp=251904|best_effort_timestamp_time=5.712109|duration=2048|duration_time=0.046440|pkt_pos=45812|pkt_size=372|sample_fmt=fltp|nb_samples=2048|channels=2|channel_layout=unknown
packet|codec_type=audio|stream_index=0|pts=253952|pts_time=5.758549|dts=253952|dts_time=5.758549|duration=2048|duration_time=0.046440|size=372|pos=46184|flags=K__
frame|media_type=audio|stream_index=0|key_frame=1|pts=253952|pts_time=5.758549|pkt_dts=253952|pkt_dts_time=5.758549|best_effort_timestamp=253952|best_effort_timestamp_time=5.758549|duration=2048|duration_time=0.046440|pkt_pos=46184|pkt_size=372|sample_fmt=fltp|nb_samples=2048|channels=2|channel_layout=unknown
packet|codec_type=audio|stream_index=0|pts=256000|pts_time=5.804989|dts=256000|dts_time=5.804989|duration=2048|duration_time=0.046440|size=372|pos=46556|flags=K__
frame|media_type=audio|stream_index=0|key_frame=1|pts=256000|pts_time=5.804989|pkt_dts=256000|pkt_dts_time=5.804989|best_effort_timestamp=256000|best_effort_timestamp_time=5.804989|duration=2048|duration_time=0.046440|pkt_pos=46556|pkt_size=372|sample_fmt=fltp|nb_samples=2048|channels=2|channel_layout=unknown
packet|codec_type=audio|stream_index=0|pts=258048|pts_time=5.851429|dts=258048|dts_time=5.851429|duration=2048|duration_time=0.046440|size=372|pos=46928|flags=K__
frame|media_type=audio|stream_index=0|key_frame=1|pts=258048|pts_time=5.851429|pkt_dts=258048|pkt_dts_time=5.851429|best_effort_timestamp=258048|best_effort_timestamp_time=5.851429|duration=2048|duration_time=0.046440|pkt_pos=46928|pkt_size=372|sample_fmt=fltp|nb_samples=2048|channels=2|channel_layout=unknown
packet|codec_type=audio|stream_index=0|pts=260096|pts_time=5.897868|dts=260096|dts_time=5.897868|duration=2048|duration_time=0.046440|size=372|pos=47300|flags=K__
frame|media_type=audio|stream_index=0|key_frame=1|pts=260096|pts_time=5.897868|pkt_dts=260096|pkt_dts_time=5.897868|best_effort_timestamp=260096|best_effort_timestamp_time=5.897868|duration=2048|duration_time=0.046440|pkt_pos=47300|pkt_size=372|sample_fmt=fltp|nb_samples=2048|channels=2|channel_layout=unknown
packet|codec_type=audio|stream_index=0|pts=262144|pts_time=5.944308|dts=262144|dts_time=5.944308|duration=2048|duration_time=0.046440|size=372|pos=47672|flags=K__
frame|media_type=audio|stream_index=0|key_frame=1|pts=262144|pts_time=5.944308|pkt_dts=262144|pkt_dts_time=5.944308|best_effort_timestamp=262144|best_effort_timestamp_time=5.944308|duration=2048|duration_time=0.046440|pkt_pos=47672|pkt_size=372|sample_fmt=fltp|nb_samples=2048|channels=2|channel_layout=unknown
packet|codec_type=audio|stream_index=0|pts=264192|pts_time=5.990748|dts=264192|dts_time=5.990748|duration=2048|duration_time=0.046440|size=372|pos=48044|flags=K__
frame|media_type=audio|stream_index=0|key_frame=1|pts=264192|pts_time=5.990748|pkt_dts=264192|pkt_dts_time=5.990748|best_effort_timestamp=264192|best_effort_timestamp_time=5.990748|duration=2048|duration_time=0.046440|pkt_pos=48044|pkt_size=372|sample_fmt=fltp|nb_samples=2048|channels=2|channel_layout=unknown
packet|codec_type=audio|stream_index=0|pts=266240|pts_time=6.037188|dts=266240|dts_time=6.037188|duration=2048|duration_time=0.046440|size=372|pos=48416|flags=K__
frame|media_type=audio|stream_index=0|key_frame=1|pts=266240|pts_time=6.037188|pkt_dts=266240|pkt_dts_time=6.037188|best_effort_timestamp=266240|best_effort_timestamp_time=6.037188|duration=2048|duration_time=0.046440|pkt_pos=48416|pkt_size=372|sample_fmt=fltp|nb_samples=2048|channels=2|channel_layout=unknown
packet|codec_type=audio|stream_index=0|pts=268288|pts_time=6.083628|dts=268288|dts_time=6.083628|duration=2048|duration_time=0.046440|size=372|pos=48788|flags=K__
frame|media_type=audio|stream_index=0|key_frame=1|pts=268288|pts_time=6.083628|pkt_dts=268288|pkt_dts_time=6.083628|best_effort_timestamp=268288|best_effort_timestamp_time=6.083628|duration=2048|duration_time=0.046440|pkt_pos=48788|pkt_size=372|sample_fmt=fltp|nb_samples=2048|channels=2|channel_layout=unknown
packet|codec_type=audio|stream_index=0|pts=270336|pts_time=6.130068|dts=270336|dts_time=6.130068|duration=2048|duration_time=0.046440|size=372|pos=49160|flags=K__
frame|media_type=audio|stream_index=0|key_frame=1|pts=270336|pts_time=6.130068|pkt_dts=270336|pkt_dts_time=6.130068|best_effort_timestamp=270336|best_effort_timestamp_time=6.130068|duration=2048|duration_time=0.046440|pkt_pos=49160|pkt_size=372|sample_fmt=fltp|nb_samples=2048|channels=2|channel_layout=unknown
packet|codec_type=audio|stream_index=0|pts=272384|pts_time=6.176508|dts=272384|dts_time=6.176508|duration=2048|duration_time=0.046440|size=372|pos=49532|flags=K__
frame|media_type=audio|stream_index=0|key_frame=1|pts=272384|pts_time=6.176508|pkt_dts=272384|pkt_dts_time=6.176508|best_effort_timestamp=272384|best_effort_timestamp_time=6.176508|duration=2048|duration_time=0.046440|pkt_pos=49532|pkt_size=372|sample_fmt=fltp|nb_samples=2048|channels=2|channel_layout=unknown
packet|codec_type=audio|stream_index=0|pts=274432|pts_time=6.222948|dts=274432|dts_time=6.222948|duration=2048|duration_time=0.046440|size=372|pos=49904|flags=K__
frame|media_type=audio|stream_index=0|key_frame=1|pts=274432|pts_time=6.222948|pkt_dts=274432|pkt_dts_time=6.222948|best_effort_timestamp=274432|best_effort_timestamp_time=6.222948|duration=2048|duration_time=0.046440|pkt_pos=49904|pkt_size=372|sample_fmt=fltp|nb_samples=2048|channels=2|channel_layout=unknown
packet|codec_type=audio|stream_index=0|pts=276480|pts_time=6.269388|dts=276480|dts_time=6.269388|duration=2048|duration_time=0.046440|size=372|pos=50276|flags=K__
frame|media_type=audio|stream_index=0|key_frame=1|pts=276480|pts_time=6.269388|pkt_dts=276480|pkt_dts_time=6.269388|best_effort_timestamp=276480|best_effort_timestamp_time=6.269388|duration=2048|duration_time=0.046440|pkt_pos=50276|pkt_size=372|sample_fmt=fltp|nb_samples=2048|channels=2|channel_layout=unknown
packet|codec_type=audio|stream_index=0|pts=278528|pts_time=6.315828|dts=278528|dts_time=6.315828|duration=2048|duration_time=0.046440|size=372|pos=50648|flags=K__
frame|media_type=audio|stream_index=0|key_frame=1|pts=278528|pts_time=6.315828|pkt_dts=278528|pkt_dts_time=6.315828|best_effort_timestamp=278528|best_effort_timestamp_time=6.315828|duration=2048|duration_time=0.046440|pkt_pos=50648|pkt_size=372|sample_fmt=fltp|nb_samples=2048|channels=2|channel_layout=unknown
packet|codec_type=audio|stream_index=0|pts=280576|pts_time=6.362268|dts=280576|dts_time=6.362268|duration=2048|duration_time=0.046440|size=372|pos=51020|flags=K__
frame|media_type=audio|stream_index=0|key_frame=1|pts=280576|pts_time=6.362268|pkt_dts=280576|pkt_dts_time=6.362268|best_effort_timestamp=280576|best_effort_timestamp_time=6.362268|duration=2048|duration_time=0.046440|pkt_pos=51020|pkt_size=372|sample_fmt=fltp|nb_samples=2048|channels=2|channel_layout=unknown
packet|codec_type=audio|stream_index=0|pts=282624|pts_time=6.408707|dts=282624|dts_time=6.408707|duration=2048|duration_time=0.046440|size=372|pos=51392|flags=K__
frame|media_type=audio|stream_index=0|key_frame=1|pts=282624|pts_time=6.408707|pkt_dts=282624|pkt_dts_time=6.408707|best_effort_timestamp=282624|best_effort_timestamp_time=6.408707|duration=2048|duration_time=0.046440|pkt_pos=51392|pkt_size=372|sample_fmt=fltp|nb_samples=2048|channels=2|channel_layout=unknown
packet|codec_type=audio|stream_index=0|pts=284672|pts_time=6.455147|dts=284672|dts_time=6.455147|duration=2048|duration_time=0.046440|size=372|pos=51764|flags=K__
frame|media_type=audio|stream_index=0|key_frame=1|pts=284672|pts_time=6.455147|pkt_dts=284672|pkt_dts_time=6.455147|best_effort_timestamp=284672|best_effort_timestamp_time=6.455147|duration=2048|duration_time=0.046440|pkt_pos=51764|pkt_size=372|sample_fmt=fltp|nb_samples=2048|channels=2|channel_layout=unknown
packet|codec_type=audio|stream_index=0|pts=286720|pts_time=6.501587|dts=286720|dts_time=6.501587|duration=2048|duration_time=0.046440|size=372|pos=52136|flags=K__
frame|media_type=audio|stream_index=0|key_frame=1|pts=286720|pts_time=6.501587|pkt_dts=286720|pkt_dts_time=6.501587|best_effort_timestamp=286720|best_effort_timestamp_time=6.501587|duration=2048|duration_time=0.046440|pkt_pos=52136|pkt_size=372|sample_fmt=fltp|nb_samples=2048|channels=2|channel_layout=unknown
packet|codec_type=audio|stream_index=0|pts=288768|pts_time=6.548027|dts=288768|dts_time=6.548027|duration=2048|duration_time=0.046440|size=372|pos=52508|flags=K__
frame|media_type=audio|stream_index=0|key_frame=1|pts=288768|pts_time=6.548027|pkt_dts=288768|pkt_dts_time=6.548027|best_effort_timestamp=288768|best_effort_timestamp_time=6.548027|duration=2048|duration_time=0.046440|pkt_pos=52508|pkt_size=372|sample_fmt=fltp|nb_samples=2048|channels=2|channel_layout=unknown
packet|codec_type=audio|stream_index=0|pts=290816|pts_time=6.594467|dts=290816|dts_time=6.594467|duration=2048|duration_time=0.046440|size=372|pos=52880|flags=K__
frame|media_type=audio|stream_index=0|key_frame=1|pts=290816|pts_time=6.594467|pkt_dts=290816|pkt_dts_time=6.594467|best_effort_timestamp=290816|best_effort_timestamp_time=6.594467|duration=2048|duration_time=0.046440|pkt_pos=52880|pkt_size=372|sample_fmt=fltp|nb_samples=2048|channels=2|channel_layout=unknown
packet|codec_type=audio|stream_index=0|pts=292864|pts_time=6.640907|dts=292864|dts_time=6.640907|duration=2048|duration_time=0.046440|size=372|pos=53252|flags=K__
frame|media_type=audio|stream_index=0|key_frame=1|pts=292864|pts_time=6.640907|pkt_dts=292864|pkt_dts_time=6.640907|best_effort_timestamp=292864|best_effort_timestamp_time=6.640907|duration=2048|duration_time=0.046440|pkt_pos=53252|pkt_size=372|sample_fmt=fltp|nb_samples=2048|channels=2|channel_layout=unknown
packet|codec_type=audio|stream_index=0|pts=294912|pts_time=6.687347|dts=294912|dts_time=6.687347|duration=2048|duration_time=0.046440|size=372|pos=53624|flags=K__
frame|media_type=audio|stream_index=0|key_frame=1|pts=294912|pts_time=6.687347|pkt_dts=294912|pkt_dts_time=6.687347|best_effort_timestamp=294912|best_effort_timestamp_time=6.687347|duration=2048|duration_time=0.046440|pkt_pos=53624|pkt_size=372|sample_fmt=fltp|nb_samples=2048|channels=2|channel_layout=unknown
packet|codec_type=audio|stream_index=0|pts=296960|pts_time=6.733787|dts=296960|dts_time=6.733787|duration=2048|duration_time=0.046440|size=372|pos=53996|flags=K__
frame|media_type=audio|stream_index=0|key_frame=1|pts=296960|pts_time=6.733787|pkt_dts=296960|pkt_dts_time=6.733787|best_effort_timestamp=296960|best_effort_timestamp_time=6.733787|duration=2048|duration_time=0.046440|pkt_pos=53996|pkt_size=372|sample_fmt=fltp|nb_samples=2048|channels=2|channel_layout=unknown
packet|codec_type=audio|stream_index=0|pts=299008|pts_time=6.780227|dts=299008|dts_time=6.780227|duration=2048|duration_time=0.046440|size=372|pos=54368|flags=K__
frame|media_type=audio|stream_index=0|key_frame=1|pts=299008|pts_time=6.780227|pkt_dts=299008|pkt_dts_time=6.780227|best_effort_timestamp=299008|best_effort_timestamp_time=6.780227|duration=2048|duration_time=0.046440|pkt_pos=54368|pkt_size=372|sample_fmt=fltp|nb_samples=2048|channels=2|channel_layout=unknown
packet|codec_type=audio|stream_index=0|pts=301056|pts_time=6.826667|dts=301056|dts_time=6.826667|duration=2048|duration_time=0.046440|size=372|pos=54740|flags=K__
frame|media_type=audio|stream_index=0|key_frame=1|pts=301056|pts_time=6.826667|pkt_dts=301056|pkt_dts_time=6.826667|best_effort_timestamp=301056|best_effort_timestamp_time=6.826667|duration=2048|duration_time=0.046440|pkt_pos=54740|pkt_size=372|sample_fmt=fltp|nb_samples=2048|channels=2|channel_layout=unknown
packet|codec_type=audio|stream_index=0|pts=303104|pts_time=6.873107|dts=303104|dts_time=6.873107|duration=2048|duration_time=0.046440|size=372|pos=55112|flags=K__
frame|media_type=audio|stream_index=0|key_frame=1|pts=303104|pts_time=6.873107|pkt_dts=303104|pkt_dts_time=6.873107|best_effort_timestamp=303104|best_effort_timestamp_time=6.873107|duration=2048|duration_time=0.046440|pkt_pos=55112|pkt_size=372|sample_fmt=fltp|nb_samples=2048|channels=2|channel_layout=unknown
packet|codec_type=audio|stream_index=0|pts=305152|pts_time=6.919546|dts=305152|dts_time=6.919546|duration=2048|duration_time=0.046440|size=372|pos=55484|flags=K__
frame|media_type=audio|stream_index=0|key_frame=1|pts=305152|pts_time=6.919546|pkt_dts=305152|pkt_dts_time=6.919546|best_effort_timestamp=305152|best_effort_timestamp_time=6.919546|duration=2048|duration_time=0.046440|pkt_pos=55484|pkt_size=372|sample_fmt=fltp|nb_samples=2048|channels=2|channel_layout=unknown
packet|codec_type=audio|stream_index=0|pts=307200|pts_time=6.965986|dts=307200|dts_time=6.965986|duration=2048|duration_time=0.046440|size=372|pos=55856|flags=K__
frame|media_type=audio|stream_index=0|key_frame=1|pts=307200|pts_time=6.965986|pkt_dts=307200|pkt_dts_time=6.965986|best_effort_timestamp=307200|best_effort_timestamp_time=6.965986|duration=2048|duration_time=0.046440|pkt_pos=55856|pkt_size=372|sample_fmt=fltp|nb_samples=2048|channels=2|channel_layout=unknown
packet|codec_type=audio|stream_index=0|pts=309248|pts_time=7.012426|dts=309248|dts_time=7.012426|duration=2048|duration_time=0.046440|size=372|pos=56228|flags=K__
frame|media_type=audio|stream_index=0|key_frame=1|pts=309248|pts_time=7.012426|pkt_dts=309248|pkt_dts_time=7.012426|best_effort_timestamp=309248|best_effort_timestamp_time=7.012426|duration=2048|duration_time=0.046440|pkt_pos=56228|pkt_size=372|sample_fmt=fltp|nb_samples=2048|channels=2|channel_layout=unknown
packet|codec_type=audio|stream_index=0|pts=311296|pts_time=7.058866|dts=311296|dts_time=7.058866|duration=2048|duration_time=0.046440|size=372|pos=56600|flags=K__
frame|media_type=audio|stream_index=0|key_frame=1|pts=311296|pts_time=7.058866|pkt_dts=311296|pkt_dts_time=7.058866|best_effort_timestamp=311296|best_effort_timestamp_time=7.058866|duration=2048|duration_time=0.046440|pkt_pos=56600|pkt_size=372|sample_fmt=fltp|nb_samples=2048|channels=2|channel_layout=unknown
packet|codec_type=audio|stream_index=0|pts=313344|pts_time=7.105306|dts=313344|dts_time=7.105306|duration=2048|duration_time=0.046440|size=372|pos=56972|flags=K__
frame|media_type=audio|stream_index=0|key_frame=1|pts=313344|pts_time=7.105306|pkt_dts=313344|pkt_dts_time=7.105306|best_effort_timestamp=313344|best_effort_timestamp_time=7.105306|duration=2048|duration_time=0.046440|pkt_pos=56972|pkt_size=372|sample_fmt=fltp|nb_samples=2048|channels=2|channel_layout=unknown
packet|codec_type=audio|stream_index=0|pts=315392|pts_time=7.151746|dts=315392|dts_time=7.151746|duration=2048|duration_time=0.046440|size=372|pos=57344|flags=K__
frame|media_type=audio|stream_index=0|key_frame=1|pts=315392|pts_time=7.151746|pkt_dts=315392|pkt_dts_time=7.151746|best_effort_timestamp=315392|best_effort_timestamp_time=7.151746|duration=2048|duration_time=0.046440|pkt_pos=57344|pkt_size=372|sample_fmt=fltp|nb_samples=2048|channels=2|channel_layout=unknown
packet|codec_type=audio|stream_index=0|pts=317440|pts_time=7.198186|dts=317440|dts_time=7.198186|duration=2048|duration_time=0.046440|size=372|pos=57716|flags=K__
frame|media_type=audio|stream_index=0|key_frame=1|pts=317440|pts_time=7.198186|pkt_dts=317440|pkt_dts_time=7.198186|best_effort_timestamp=317440|best_effort_timestamp_time=7.198186|duration=2048|duration_time=0.046440|pkt_pos=57716|pkt_size=372|sample_fmt=fltp|nb_samples=2048|channels=2|channel_layout=unknown
packet|codec_type=audio|stream_index=0|pts=319488|pts_time=7.244626|dts=319488|dts_time=7.244626|duration=2048|duration_time=0.046440|size=372|pos=58088|flags=K__
frame|media_type=audio|stream_index=0|key_frame=1|pts=319488|pts_time=7.244626|pkt_dts=319488|pkt_dts_time=7.244626|best_effort_timestamp=319488|best_effort_timestamp_time=7.244626|duration=2048|duration_time=0.046440|pkt_pos=58088|pkt_size=372|sample_fmt=fltp|nb_samples=2048|channels=2|channel_layout=unknown
packet|codec_type=audio|stream_index=0|pts=321536|pts_time=7.291066|dts=321536|dts_time=7.291066|duration=2048|duration_time=0.046440|size=372|pos=58460|flags=K__
frame|media_type=audio|stream_index=0|key_frame=1|pts=321536|pts_time=7.291066|pkt_dts=321536|pkt_dts_time=7.291066|best_effort_timestamp=321536|best_effort_timestamp_time=7.291066|duration=2048|duration_time=0.046440|pkt_pos=58460|pkt_size=372|sample_fmt=fltp|nb_samples=2048|channels=2|channel_layout=unknown
packet|codec_type=audio|stream_index=0|pts=323584|pts_time=7.337506|dts=323584|dts_time=7.337506|duration=2048|duration_time=0.046440|size=372|pos=58832|flags=K__
frame|media_type=audio|stream_index=0|key_frame=1|pts=323584|pts_time=7.337506|pkt_dts=323584|pkt_dts_time=7.337506|best_effort_timestamp=323584|best_effort_timestamp_time=7.337506|duration=2048|duration_time=0.046440|pkt_pos=58832|pkt_size=372|sample_fmt=fltp|nb_samples=2048|channels=2|channel_layout=unknown
packet|codec_type=audio|stream_index=0|pts=325632|pts_time=7.383946|dts=325632|dts_time=7.383946|duration=2048|duration_time=0.046440|size=372|pos=59204|flags=K__
frame|media_type=audio|stream_index=0|key_frame=1|pts=325632|pts_time=7.383946|pkt_dts=325632|pkt_dts_time=7.383946|best_effort_timestamp=325632|best_effort_timestamp_time=7.383946|duration=2048|duration_time=0.046440|pkt_pos=59204|pkt_size=372|sample_fmt=fltp|nb_samples=2048|channels=2|channel_layout=unknown
packet|codec_type=audio|stream_index=0|pts=327680|pts_time=7.430385|dts=327680|dts_time=7.430385|duration=2048|duration_time=0.046440|size=372|pos=59576|flags=K__
frame|media_type=audio|stream_index=0|key_frame=1|pts=327680|pts_time=7.430385|pkt_dts=327680|pkt_dts_time=7.430385|best_effort_timestamp=327680|best_effort_timestamp_time=7.430385|duration=2048|duration_time=0.046440|pkt_pos=59576|pkt_size=372|sample_fmt=fltp|nb_samples=2048|channels=2|channel_layout=unknown
packet|codec_type=audio|stream_index=0|pts=329728|pts_time=7.476825|dts=329728|dts_time=7.476825|duration=2048|duration_time=0.046440|size=372|pos=59948|flags=K__
frame|media_type=audio|stream_index=0|key_frame=1|pts=329728|pts_time=7.476825|pkt_dts=329728|pkt_dts_time=7.476825|best_effort_timestamp=329728|best_effort_timestamp_time=7.476825|duration=2048|duration_time=0.046440|pkt_pos=59948|pkt_size=372|sample_fmt=fltp|nb_samples=2048|channels=2|channel_layout=unknown
packet|codec_type=audio|stream_index=0|pts=331776|pts_time=7.523265|dts=331776|dts_time=7.523265|duration=2048|duration_time=0.046440|size=372|pos=60320|flags=K__
frame|media_type=audio|stream_index=0|key_frame=1|pts=331776|pts_time=7.523265|pkt_dts=331776|pkt_dts_time=7.523265|best_effort_timestamp=331776|best_effort_timestamp_time=7.523265|duration=2048|duration_time=0.046440|pkt_pos=60320|pkt_size=372|sample_fmt=fltp|nb_samples=2048|channels=2|channel_layout=unknown
packet|codec_type=audio|stream_index=0|pts=333824|pts_time=7.569705|dts=333824|dts_time=7.569705|duration=2048|duration_time=0.046440|size=372|pos=60692|flags=K__
frame|media_type=audio|stream_index=0|key_frame=1|pts=333824|pts_time=7.569705|pkt_dts=333824|pkt_dts_time=7.569705|best_effort_timestamp=333824|best_effort_timestamp_time=7.569705|duration=2048|duration_time=0.046440|pkt_pos=60692|pkt_size=372|sample_fmt=fltp|nb_samples=2048|channels=2|channel_layout=unknown
packet|codec_type=audio|stream_index=0|pts=335872|pts_time=7.616145|dts=335872|dts_time=7.616145|duration=2048|duration_time=0.046440|size=372|pos=61064|flags=K__
frame|media_type=audio|stream_index=0|key_frame=1|pts=335872|pts_time=7.616145|pkt_dts=335872|pkt_dts_time=7.616145|best_effort_timestamp=335872|best_effort_timestamp_time=7.616145|duration=2048|duration_time=0.046440|pkt_pos=61064|pkt_size=372|sample_fmt=fltp|nb_samples=2048|channels=2|channel_layout=unknown
packet|codec_type=audio|stream_index=0|pts=337920|pts_time=7.662585|dts=337920|dts_time=7.662585|duration=2048|duration_time=0.046440|size=372|pos=61436|flags=K__
frame|media_type=audio|stream_index=0|key_frame=1|pts=337920|pts_time=7.662585|pkt_dts=337920|pkt_dts_time=7.662585|best_effort_timestamp=337920|best_effort_timestamp_time=7.662585|duration=2048|duration_time=0.046440|pkt_pos=61436|pkt_size=372|sample_fmt=fltp|nb_samples=2048|channels=2|channel_layout=unknown
packet|codec_type=audio|stream_index=0|pts=339968|pts_time=7.709025|dts=339968|dts_time=7.709025|duration=2048|duration_time=0.046440|size=372|pos=61808|flags=K__
frame|media_type=audio|stream_index=0|key_frame=1|pts=339968|pts_time=7.709025|pkt_dts=339968|pkt_dts_time=7.709025|best_effort_timestamp=339968|best_effort_timestamp_time=7.709025|duration=2048|duration_time=0.046440|pkt_pos=61808|pkt_size=372|sample_fmt=fltp|nb_samples=2048|channels=2|channel_layout=unknown
packet|codec_type=audio|stream_index=0|pts=342016|pts_time=7.755465|dts=342016|dts_time=7.755465|duration=2048|duration_time=0.046440|size=372|pos=62180|flags=K__
frame|media_type=audio|stream_index=0|key_frame=1|pts=342016|pts_time=7.755465|pkt_dts=342016|pkt_dts_time=7.755465|best_effort_timestamp=342016|best_effort_timestamp_time=7.755465|duration=2048|duration_time=0.046440|pkt_pos=62180|pkt_size=372|sample_fmt=fltp|nb_samples=2048|channels=2|channel_layout=unknown
packet|codec_type=audio|stream_index=0|pts=344064|pts_time=7.801905|dts=344064|dts_time=7.801905|duration=2048|duration_time=0.046440|size=372|pos=62552|flags=K__
frame|media_type=audio|stream_index=0|key_frame=1|pts=344064|pts_time=7.801905|pkt_dts=344064|pkt_dts_time=7.801905|best_effort_timestamp=344064|best_effort_timestamp_time=7.801905|duration=2048|duration_time=0.046440|pkt_pos=62552|pkt_size=372|sample_fmt=fltp|nb_samples=2048|channels=2|channel_layout=unknown
packet|codec_type=audio|stream_index=0|pts=346112|pts_time=7.848345|dts=346112|dts_time=7.848345|duration=2048|duration_time=0.046440|size=372|pos=62924|flags=K__
frame|media_type=audio|stream_index=0|key_frame=1|pts=346112|pts_time=7.848345|pkt_dts=346112|pkt_dts_time=7.848345|best_effort_timestamp=346112|best_effort_timestamp_time=7.848345|duration=2048|duration_time=0.046440|pkt_pos=62924|pkt_size=372|sample_fmt=fltp|nb_samples=2048|channels=2|channel_layout=unknown
packet|codec_type=audio|stream_index=0|pts=348160|pts_time=7.894785|dts=348160|dts_time=7.894785|duration=2048|duration_time=0.046440|size=372|pos=63296|flags=K__
frame|media_type=audio|stream_index=0|key_frame=1|pts=348160|pts_time=7.894785|pkt_dts=348160|pkt_dts_time=7.894785|best_effort_timestamp=348160|best_effort_timestamp_time=7.894785|duration=2048|duration_time=0.046440|pkt_pos=63296|pkt_size=372|sample_fmt=fltp|nb_samples=2048|channels=2|channel_layout=unknown
packet|codec_type=audio|stream_index=0|pts=350208|pts_time=7.941224|dts=350208|dts_time=7.941224|duration=2048|duration_time=0.046440|size=372|pos=63668|flags=K__
frame|media_type=audio|stream_index=0|key_frame=1|pts=350208|pts_time=7.941224|pkt_dts=350208|pkt_dts_time=7.941224|best_effort_timestamp=350208|best_effort_timestamp_time=7.941224|duration=2048|duration_time=0.046440|pkt_pos=63668|pkt_size=372|sample_fmt=fltp|nb_samples=2048|channels=2|channel_layout=unknown
packet|codec_type=audio|stream_index=0|pts=352256|pts_time=7.987664|dts=352256|dts_time=7.987664|duration=2048|duration_time=0.046440|size=372|pos=64040|flags=K__
frame|media_type=audio|stream_index=0|key_frame=1|pts=352256|pts_time=7.987664|pkt_dts=352256|pkt_dts_time=7.987664|best_effort_timestamp=352256|best_effort_timestamp_time=7.987664|duration=2048|duration_time=0.046440|pkt_pos=64040|pkt_size=372|sample_fmt=fltp|nb_samples=2048|channels=2|channel_layout=unknown
packet|codec_type=audio|stream_index=0|pts=354304|pts_time=8.034104|dts=354304|dts_time=8.034104|duration=2048|duration_time=0.046440|size=372|pos=64412|flags=K__
frame|media_type=audio|stream_index=0|key_frame=1|pts=354304|pts_time=8.034104|pkt_dts=354304|pkt_dts_time=8.034104|best_effort_timestamp=354304|best_effort_timestamp_time=8.034104|duration=2048|duration_time=0.046440|pkt_pos=64412|pkt_size=372|sample_fmt=fltp|nb_samples=2048|channels=2|channel_layout=unknown
packet|codec_type=audio|stream_index=0|pts=356352|pts_time=8.080544|dts=356352|dts_time=8.080544|duration=2048|duration_time=0.046440|size=372|pos=64784|flags=K__
frame|media_type=audio|stream_index=0|key_frame=1|pts=356352|pts_time=8.080544|pkt_dts=356352|pkt_dts_time=8.080544|best_effort_timestamp=356352|best_effort_timestamp_time=8.080544|duration=2048|duration_time=0.046440|pkt_pos=64784|pkt_size=372|sample_fmt=fltp|nb_samples=2048|channels=2|channel_layout=unknown
packet|codec_type=audio|stream_index=0|pts=358400|pts_time=8.126984|dts=358400|dts_time=8.126984|duration=2048|duration_time=0.046440|size=372|pos=65156|flags=K__
frame|media_type=audio|stream_index=0|key_frame=1|pts=358400|pts_time=8.126984|pkt_dts=358400|pkt_dts_time=8.126984|best_effort_timestamp=358400|best_effort_timestamp_time=8.126984|duration=2048|duration_time=0.046440|pkt_pos=65156|pkt_size=372|sample_fmt=fltp|nb_samples=2048|channels=2|channel_layout=unknown
packet|codec_type=audio|stream_index=0|pts=360448|pts_time=8.173424|dts=360448|dts_time=8.173424|duration=44|duration_time=0.000998|size=8|pos=65528|flags=K_C
frame|media_type=audio|stream_index=0|key_frame=1|pts=N/A|pts_time=N/A|pkt_dts=N/A|pkt_dts_time=N/A|best_effort_timestamp=N/A|best_effort_timestamp_time=N/A|duration=44|duration_time=0.000998|pkt_pos=65528|pkt_size=8|sample_fmt=fltp|nb_samples=2048|channels=2|channel_layout=unknown
